<svg width="197" height="197" viewBox="0 0 197 197" fill="none" xmlns="http://www.w3.org/2000/svg">
<path d="M98.5 196.5C152.624 196.5 196.5 152.624 196.5 98.5C196.5 44.3761 152.624 0.5 98.5 0.5C44.3761 0.5 0.5 44.3761 0.5 98.5C0.5 152.624 44.3761 196.5 98.5 196.5Z" fill="#F2F2F3"/>
<path d="M98.22 196.5C128.02 196.5 154.72 183.19 172.69 162.2C168.28 159.82 163.45 157.59 158.22 155.5C133.21 145.5 115.21 128.49 130.24 99.4701C130.53 99.1401 130.81 98.8101 131.1 98.4801L136.72 94.4701C137.13 94.1801 137.43 93.7601 137.57 93.2801L142.07 77.9701C142.25 77.3701 142.16 76.7201 141.84 76.1801C141.53 75.6601 141.45 75.0301 141.61 74.4401C161.13 2.04009 40.5 -13.3599 59 76.5301L57.73 78.6501C57.41 79.1901 57.32 79.8401 57.5 80.4401L62 95.7501C62.14 96.2301 62.44 96.6501 62.85 96.9501L66.21 99.3501C66.45 99.5201 66.66 99.7501 66.82 100C84.05 127.57 80.94 145.79 38.34 156.47C38.26 156.49 38.18 156.51 38.11 156.54C33.06 158.37 28.55 160.6 24.55 163.11C42.51 183.58 68.86 196.5 98.23 196.5H98.22Z" fill="#B4B3B5"/>
</svg>
