<svg width="36" height="35" viewBox="0 0 36 35" fill="none" xmlns="http://www.w3.org/2000/svg">
<path fill-rule="evenodd" clip-rule="evenodd" d="M36 10C36 15.5228 31.5228 20 26 20C20.4772 20 16 15.5228 16 10C16 4.47715 20.4772 0 26 0C31.5228 0 36 4.47715 36 10ZM31.0817 4.91652C31.4723 5.30705 31.4723 5.94021 31.0817 6.33074L27.4137 9.99881L31.0825 13.6677C31.473 14.0582 31.473 14.6913 31.0825 15.0819C30.692 15.4724 30.0588 15.4724 29.6683 15.0819L25.9994 11.413L22.3306 15.0818C21.9401 15.4723 21.307 15.4723 20.9164 15.0818C20.5259 14.6913 20.5259 14.0581 20.9164 13.6676L24.5852 9.99881L20.9165 6.33008C20.526 5.93955 20.526 5.30639 20.9165 4.91586C21.307 4.52534 21.9402 4.52534 22.3307 4.91586L25.9994 8.5846L29.6675 4.91652C30.058 4.526 30.6912 4.526 31.0817 4.91652ZM20 25C20 30.5228 15.5228 35 10 35C4.47715 35 0 30.5228 0 25C0 19.4772 4.47715 15 10 15C15.5228 15 20 19.4772 20 25ZM14.8621 20.1148C15.259 20.4988 15.2693 21.1319 14.8853 21.5288L7.07277 29.6017C6.82684 29.8558 6.46498 29.9612 6.12108 29.8787C5.77718 29.7963 5.50239 29.5384 5.39839 29.2004L4.35672 25.8149C4.1943 25.2871 4.49055 24.7275 5.01841 24.5651C5.54628 24.4027 6.10586 24.6989 6.26828 25.2268L6.81231 26.9949L13.4481 20.1379C13.8321 19.7411 14.4652 19.7307 14.8621 20.1148Z" fill="black"/>
</svg>
