<svg width="20" height="18" viewBox="0 0 20 18" fill="none" xmlns="http://www.w3.org/2000/svg">
<path fill-rule="evenodd" clip-rule="evenodd" d="M2.92894 11.9294L0 9.00045L2.92893 6.07151C6.83418 2.16627 13.1658 2.16627 17.0711 6.07151L20 9.00045L17.0711 11.9294C13.1658 15.8346 6.83418 15.8346 2.92894 11.9294ZM14 9.00045C14 11.2096 12.2091 13.0004 10 13.0004C7.79086 13.0004 6 11.2096 6 9.00045C6 6.79131 7.79086 5.00045 10 5.00045C12.2091 5.00045 14 6.79131 14 9.00045ZM10 12.0004C11.6569 12.0004 13 10.6573 13 9.00043C13 7.34357 11.6569 6.00043 10 6.00043C8.34315 6.00043 7 7.34357 7 9.00043C7 10.6573 8.34315 12.0004 10 12.0004Z" fill="white"/>
<path d="M2 16.5L17 1" stroke="white" stroke-width="2" stroke-linecap="round" stroke-linejoin="round"/>
</svg>
