<svg width="20" height="18" viewBox="0 0 20 18" fill="none" xmlns="http://www.w3.org/2000/svg">
<g clip-path="url(#clip0_1205_5106)">
<path fill-rule="evenodd" clip-rule="evenodd" d="M0 8.85787L2.92894 11.7868C6.83418 15.692 13.1658 15.692 17.0711 11.7868L20 8.85787L17.0711 5.92893C13.1658 2.02369 6.83418 2.02369 2.92893 5.92893L0 8.85787ZM10 12.8579C12.2091 12.8579 14 11.067 14 8.85785C14 6.64872 12.2091 4.85786 10 4.85786C7.79086 4.85786 6 6.64872 6 8.85785C6 11.067 7.79086 12.8579 10 12.8579Z" fill="white"/>
<circle cx="10" cy="8.85742" r="3" fill="white"/>
<path fill-rule="evenodd" clip-rule="evenodd" d="M17.6954 0.281399C18.0923 0.665469 18.1027 1.29855 17.7186 1.69542L2.7186 17.1954C2.33453 17.5923 1.70145 17.6027 1.30458 17.2186C0.907706 16.8345 0.897328 16.2015 1.2814 15.8046L16.2814 0.304579C16.6655 -0.0922936 17.2985 -0.102672 17.6954 0.281399Z" fill="white"/>
</g>
<defs>
<clipPath id="clip0_1205_5106">
<rect width="20" height="18" fill="white"/>
</clipPath>
</defs>
</svg>
