<svg width="20" height="12" viewBox="0 0 20 12" fill="none" xmlns="http://www.w3.org/2000/svg">
<path fill-rule="evenodd" clip-rule="evenodd" d="M2.92894 8.7868L0 5.85787L2.92893 2.92893C6.83418 -0.976309 13.1658 -0.976312 17.0711 2.92893L20 5.85787L17.0711 8.7868C13.1658 12.692 6.83418 12.692 2.92894 8.7868ZM14 5.85787C14 8.06701 12.2091 9.85787 10 9.85787C7.79086 9.85787 6 8.06701 6 5.85787C6 3.64873 7.79086 1.85787 10 1.85787C12.2091 1.85787 14 3.64873 14 5.85787ZM10 8.85785C11.6569 8.85785 13 7.5147 13 5.85785C13 4.20099 11.6569 2.85785 10 2.85785C8.34315 2.85785 7 4.20099 7 5.85785C7 7.5147 8.34315 8.85785 10 8.85785Z" fill="white"/>
</svg>
