<svg width="24" height="24" viewBox="0 0 24 24" fill="none" xmlns="http://www.w3.org/2000/svg">
<path fill-rule="evenodd" clip-rule="evenodd" d="M7 4.5H17.0001C18.9331 4.5 20.5001 6.067 20.5001 8V16C20.5001 17.1972 19.899 18.2541 18.9821 18.8851L14.9332 11.8523C14.7409 11.5182 14.2589 11.5182 14.0665 11.8523L10.8843 17.3799L8.68111 13.6333C8.4878 13.3046 8.01241 13.3046 7.8191 13.6333L4.81804 18.7368C4.01471 18.0955 3.5 17.1078 3.5 16V8C3.5 6.067 5.067 4.5 7 4.5ZM2 8C2 5.23858 4.23858 3 7 3H17.0001C19.7615 3 22.0001 5.23858 22.0001 8V16C22.0001 18.7614 19.7615 21 17.0001 21H7C4.23857 21 2 18.7614 2 16V8ZM8.66667 10.1996C9.58715 10.1996 10.3333 9.39372 10.3333 8.39961C10.3333 7.4055 9.58715 6.59961 8.66667 6.59961C7.7462 6.59961 7 7.4055 7 8.39961C7 9.39372 7.7462 10.1996 8.66667 10.1996Z" fill="black"/>
</svg>
