<svg width="38" height="24" viewBox="0 0 38 24" fill="none" xmlns="http://www.w3.org/2000/svg">
<path fill-rule="evenodd" clip-rule="evenodd" d="M6.89384 12.386C7.41703 12.9042 7.42107 13.7484 6.90286 14.2716L4.53063 16.6667H32.8027L30.4305 14.2716C29.9123 13.7484 29.9163 12.9042 30.4395 12.386C30.9627 11.8678 31.8069 11.8719 32.3251 12.395L36.9473 17.0617C37.462 17.5814 37.462 18.4186 36.9473 18.9383L32.3251 23.605C31.8069 24.1281 30.9627 24.1322 30.4395 23.614C29.9163 23.0958 29.9123 22.2516 30.4305 21.7284L32.8027 19.3333H4.53063L6.90286 21.7284C7.42107 22.2516 7.41703 23.0958 6.89384 23.614C6.37066 24.1322 5.52645 24.1281 5.00825 23.605L0.386024 18.9383C-0.128675 18.4186 -0.128675 17.5814 0.386024 17.0617L5.00825 12.395C5.52645 11.8719 6.37066 11.8678 6.89384 12.386Z" fill="black"/>
<path d="M6.26549 8.03798C6.26549 8.75339 5.68554 9.33333 4.97014 9.33333C4.25474 9.33333 3.6748 8.75339 3.6748 8.03799V3.23275C3.6748 2.58617 3.15064 2.06202 2.50406 2.06202H2.36434C1.79493 2.06202 1.33333 1.60042 1.33333 1.03101C1.33333 0.461598 1.79493 0 2.36434 0H7.56939C8.1388 0 8.6004 0.461598 8.6004 1.03101C8.6004 1.60042 8.1388 2.06202 7.56939 2.06202H7.43294C6.78818 2.06202 6.26549 2.5847 6.26549 3.22947V8.03798Z" fill="black"/>
<path d="M11.2731 9.33333C10.5541 9.33333 9.97117 8.75045 9.97117 8.03143V1.30191C9.97117 0.582882 10.5541 0 11.2731 0C11.9921 0 12.575 0.582883 12.575 1.30191V8.03143C12.575 8.75045 11.9921 9.33333 11.2731 9.33333Z" fill="black"/>
<path d="M20.0631 9.33333C19.3335 9.33333 18.6915 8.85187 18.4872 8.15154L16.8776 2.63394C16.8737 2.62037 16.8612 2.61104 16.8471 2.61104C16.8283 2.61104 16.8135 2.62728 16.8153 2.64602C16.8317 2.81665 16.848 3.0412 16.8644 3.31965C16.8862 3.61757 16.9059 3.9389 16.9234 4.28363C16.9409 4.62836 16.9496 4.96033 16.9496 5.27953V8.18556C16.9496 8.81946 16.4358 9.33333 15.8019 9.33333C15.168 9.33333 14.6541 8.81946 14.6541 8.18556V1.97963C14.6541 0.886309 15.5404 0 16.6337 0C17.5067 0 18.2766 0.571812 18.5289 1.40752L20.0968 6.60149C20.1013 6.61636 20.115 6.62654 20.1306 6.62654C20.1462 6.62654 20.1599 6.61627 20.1643 6.60131L21.6985 1.41711C21.9473 0.576654 22.7193 0 23.5958 0C24.6885 0 25.5744 0.885841 25.5744 1.97858V8.14293C25.5744 8.80037 25.0414 9.33333 24.384 9.33333C23.7265 9.33333 23.1936 8.80037 23.1936 8.14293V5.24122C23.1936 4.94756 23.1979 4.63262 23.2067 4.2964C23.2198 3.95592 23.2329 3.63672 23.246 3.33881C23.2624 3.05617 23.2768 2.82939 23.2894 2.65846C23.2907 2.63975 23.2759 2.6238 23.2572 2.6238C23.2428 2.6238 23.2302 2.63331 23.2262 2.64712L21.6403 8.14666C21.4376 8.84943 20.7945 9.33333 20.0631 9.33333Z" fill="black"/>
<path d="M33.3333 8.30552C33.3333 8.87316 32.8732 9.33333 32.3055 9.33333H29.6404C28.5358 9.33333 27.6404 8.4379 27.6404 7.33333V2C27.6404 0.895429 28.5358 0 29.6404 0H32.3215C32.8803 0 33.3333 0.453023 33.3333 1.01186C33.3333 1.57069 32.8803 2.02371 32.3215 2.02371H30.9652C30.5598 2.02371 30.2311 2.3524 30.2311 2.75787C30.2311 3.16333 30.5598 3.49202 30.9652 3.49202H32.0919C32.6508 3.49202 33.1038 3.94504 33.1038 4.50388C33.1038 5.06271 32.6508 5.51573 32.0919 5.51573H31.112C30.6255 5.51573 30.2311 5.91016 30.2311 6.39672C30.2311 6.88327 30.6255 7.2777 31.112 7.2777H32.3055C32.8732 7.2777 33.3333 7.73787 33.3333 8.30552Z" fill="black"/>
</svg>
