<svg width="28" height="34" viewBox="0 0 28 34" fill="none" xmlns="http://www.w3.org/2000/svg">
<path fill-rule="evenodd" clip-rule="evenodd" d="M10 2H19V5H10V2ZM8 2C8 0.89543 8.89543 0 10 0H19C20.1046 0 21 0.895431 21 2V2.64276H23.7502C24.8774 2.64276 25.9584 3.09053 26.7554 3.88757C27.5525 4.6846 28.0002 5.76561 28.0002 6.89279V29.643C28.0002 30.7702 27.5525 31.8512 26.7554 32.6482C25.9584 33.4452 24.8774 33.893 23.7502 33.893H4.25003C3.12285 33.893 2.04184 33.4452 1.2448 32.6482C0.44777 31.8512 0 30.7702 0 29.643V6.89279C0 5.76561 0.447769 4.6846 1.2448 3.88757C2.04184 3.09053 3.12285 2.64276 4.25003 2.64276H7.50006C7.68218 2.64276 7.85293 2.69145 8 2.77651V2ZM8 4.50901C7.85293 4.59408 7.68218 4.64276 7.50006 4.64276H4.25003C3.65328 4.64276 3.08098 4.87982 2.65902 5.30178C2.23706 5.72374 2 6.29605 2 6.89279V29.643C2 30.2397 2.23706 30.812 2.65902 31.234C3.08098 31.656 3.65328 31.893 4.25003 31.893H23.7502C24.3469 31.893 24.9192 31.656 25.3412 31.234C25.7632 30.812 26.0002 30.2397 26.0002 29.643V6.89279C26.0002 6.29605 25.7632 5.72374 25.3412 5.30178C24.9192 4.87982 24.3469 4.64276 23.7502 4.64276H21V5C21 6.10457 20.1046 7 19 7H10C8.89543 7 8 6.10457 8 5V4.50901ZM12 13C11.4477 13 11 13.4477 11 14C11 14.5523 11.4477 15 12 15H22C22.5523 15 23 14.5523 23 14C23 13.4477 22.5523 13 22 13H12ZM12 18.5C11.4477 18.5 11 18.9477 11 19.5C11 20.0523 11.4477 20.5 12 20.5H22C22.5523 20.5 23 20.0523 23 19.5C23 18.9477 22.5523 18.5 22 18.5H12ZM12 24C11.4477 24 11 24.4477 11 25C11 25.5523 11.4477 26 12 26H22C22.5523 26 23 25.5523 23 25C23 24.4477 22.5523 24 22 24H12ZM5.81366 11.4779C5.87987 11.3081 6.12013 11.3081 6.18634 11.4779L6.62389 12.6001C6.65383 12.6769 6.72781 12.7275 6.81023 12.7275H8.13668C8.3391 12.7275 8.41342 12.9937 8.24026 13.0985L7.23365 13.708C7.1505 13.7583 7.11558 13.8612 7.15089 13.9517L7.54936 14.9737C7.61878 15.1517 7.4229 15.3164 7.25944 15.2174L6.10358 14.5176C6.03991 14.4791 5.96009 14.4791 5.89642 14.5176L4.74056 15.2174C4.5771 15.3164 4.38122 15.1517 4.45064 14.9737L4.84911 13.9517C4.88442 13.8612 4.8495 13.7583 4.76635 13.708L3.75974 13.0985C3.58658 12.9937 3.6609 12.7275 3.86332 12.7275H5.18977C5.27219 12.7275 5.34617 12.6769 5.37611 12.6001L5.81366 11.4779ZM6.19021 16.5854C6.13034 16.4011 5.86966 16.4011 5.80979 16.5854L5.37136 17.9348C5.34459 18.0172 5.26779 18.0729 5.18115 18.0729H3.76237C3.56862 18.0729 3.48807 18.3209 3.64481 18.4348L4.79263 19.2687C4.86273 19.3196 4.89206 19.4099 4.86528 19.4923L4.42686 20.8416C4.36699 21.0259 4.57788 21.1791 4.73462 21.0652L5.88244 20.2313C5.95254 20.1804 6.04746 20.1804 6.11756 20.2313L7.26538 21.0652C7.42212 21.1791 7.63301 21.0259 7.57314 20.8416L7.13472 19.4923C7.10794 19.4099 7.13727 19.3196 7.20737 19.2687L8.35519 18.4348C8.51193 18.3209 8.43138 18.0729 8.23763 18.0729H6.81885C6.73221 18.0729 6.65541 18.0172 6.62864 17.9348L6.19021 16.5854ZM5.80979 22.5854C5.86966 22.4011 6.13034 22.4011 6.19021 22.5854L6.62864 23.9348C6.65541 24.0172 6.73221 24.0729 6.81885 24.0729H8.23763C8.43138 24.0729 8.51193 24.3209 8.35519 24.4348L7.20737 25.2687C7.13727 25.3196 7.10794 25.4099 7.13472 25.4923L7.57314 26.8416C7.63301 27.0259 7.42212 27.1791 7.26538 27.0652L6.11756 26.2313C6.04746 26.1804 5.95254 26.1804 5.88244 26.2313L4.73462 27.0652C4.57788 27.1791 4.36699 27.0259 4.42686 26.8416L4.86528 25.4923C4.89206 25.4099 4.86273 25.3196 4.79263 25.2687L3.64481 24.4348C3.48807 24.3209 3.56862 24.0729 3.76237 24.0729H5.18115C5.26779 24.0729 5.34459 24.0172 5.37136 23.9348L5.80979 22.5854Z" fill="black"/>
</svg>
