<?xml version="1.0" encoding="UTF-8"?>
<svg id="_圖層_6" data-name="圖層 6" xmlns="http://www.w3.org/2000/svg" viewBox="0 0 500.45 500.45">
  <defs>
    <style>
      .cls-1, .cls-2 {
        fill: none;
      }

      .cls-3 {
        fill: #f64a80;
      }

      .cls-4 {
        fill: #fff;
      }

      .cls-5 {
        fill: #686868;
      }

      .cls-6 {
        fill: #d81b60;
      }

      .cls-7 {
        fill: #231815;
      }

      .cls-8 {
        fill: #40b2db;
      }

      .cls-9 {
        fill: #964163;
      }

      .cls-10 {
        fill: #878787;
      }

      .cls-11 {
        fill: #4f4f4f;
      }

      .cls-2 {
        stroke: #aa7272;
        stroke-miterlimit: 10;
        stroke-width: 0px;
      }
    </style>
  </defs>
  <g id="light_square" data-name="light square">
    <g id="light_mood_square_" data-name="light mood(square)">
      <path class="cls-10" d="m453.81,239.06v102.08c0,11.27-9.14,20.41-20.42,20.41s-20.41-9.14-20.41-20.41v-102.08c0-4.18-.63-8.22-1.8-12.02-3.97-12.88-14.13-23.05-27.01-27.01h0c-3.8-1.17-7.84-1.8-12.02-1.8s-8.22.63-12.02,1.8c-12.88,3.96-23.05,14.13-27.01,27.01-.27.88-.51,1.78-.73,2.69l-1.75,6.25c-3.07,7.4-10.36,12.61-18.87,12.61-11.27,0-20.41-9.14-20.41-20.42,0-2.24.36-4.4,1.03-6.42-.02.04-.04.08-.06.13-.02.04-.04.09-.06.13,1.52-7.16,3.98-13.98,7.25-20.31.6-1.17,1.24-2.33,1.89-3.47.35-.61.71-1.21,1.08-1.81,6.75-11,16.02-20.27,27.02-27.02.6-.37,1.2-.73,1.81-1.08,1.14-.66,2.29-1.29,3.47-1.89,7.32-3.78,15.29-6.48,23.69-7.89,4.45-.75,9.01-1.14,13.67-1.14s9.22.39,13.67,1.14h0c8.4,1.42,16.37,4.12,23.69,7.89,1.17.6,2.33,1.23,3.47,1.89.61.35,1.21.71,1.81,1.08,11,6.74,20.27,16.02,27.02,27.02.37.6.73,1.2,1.08,1.81.66,1.14,1.29,2.29,1.9,3.46,0,0,0,0,0,0,3.77,7.32,6.47,15.29,7.89,23.69h0c.75,4.45,1.14,9.01,1.14,13.67Z"/>
      <path class="cls-8" d="m168.23,287.41c0,.62.03,1.23.09,1.83v2.3c0,.7-.02,1.39-.06,2.08-.02-.69-.03-1.38-.03-2.07v-4.14Z"/>
      <path class="cls-5" d="m203.11,240.4c-3.7-3.69-8.8-5.98-14.45-5.98-11.28,0-20.43,9.14-20.43,20.43v-65.38c0-11.28,9.14-20.42,20.41-20.42s19.67,8.42,20.37,19.06c.03.45.05.9.05,1.36v64.33c-.26-5.22-2.48-9.93-5.95-13.4Z"/>
      <path class="cls-11" d="m331.55,230.3v61.25c0,4.66-.39,9.22-1.14,13.67-.71,4.2-1.74,8.29-3.06,12.25-1.33,3.96-2.95,7.78-4.83,11.44-.61,1.18-1.24,2.33-1.9,3.47-.35.61-.71,1.21-1.07,1.81-6.75,10.99-16.03,20.27-27.02,27.01-.6.37-1.2.73-1.81,1.08-1.14.66-2.29,1.29-3.47,1.9-3.66,1.89-7.48,3.5-11.44,4.83-3.96,1.32-8.05,2.35-12.25,3.06-4.45.75-9.01,1.14-13.67,1.14s-9.23-.39-13.67-1.14h-.01c-8.4-1.42-16.37-4.12-23.69-7.89-1.17-.61-2.33-1.24-3.46-1.9-.61-.35-1.22-.71-1.81-1.08-6.94-4.25-13.2-9.52-18.57-15.59,3.15-3.55,5.98-7.37,8.47-11.43.36-.59.72-1.2,1.07-1.81.66-1.13,1.29-2.29,1.9-3.46,3.77-7.32,6.47-15.29,7.89-23.69h0c.12-.7.22-1.39.32-2.09.44-3.1.71-6.26.79-9.47.17,3.43.77,6.75,1.74,9.91,3.96,12.88,14.12,23.05,27,27.01,3.81,1.17,7.84,1.8,12.03,1.8s8.22-.63,12.02-1.8c12.88-3.96,23.05-14.13,27.01-27.01,1.17-3.8,1.8-7.84,1.8-12.02v-54.83c.11-3.84.48-7.62,1.1-11.32.2-1.13.41-2.26.65-3.38.02-.04.04-.09.06-.13,3.18-7.04,10.25-11.95,18.47-12h.27c11.21.07,20.28,9.18,20.28,20.41Z"/>
      <path class="cls-7" d="m290.72,231.46v2.36h-.03c0-.79.01-1.57.03-2.36Z"/>
      <line class="cls-1" x1="413.28" y1="224.92" x2="413.28" y2="224.92"/>
      <line class="cls-1" x1="414.74" y1="219.73" x2="414.74" y2="219.73"/>
      <line class="cls-2" x1="415.15" y1="218.12" x2="414.93" y2="218.92"/>
      <line class="cls-2" x1="413.18" y1="225.17" x2="413.05" y2="225.62"/>
      <path class="cls-9" d="m209.12,293.66c-.08,3.21-.35,6.37-.79,9.47-.1.7-.2,1.39-.32,2.08h0c-1.42,8.41-4.12,16.38-7.89,23.7-.61,1.17-1.24,2.33-1.9,3.46-.35.61-.71,1.22-1.07,1.81-2.49,4.06-5.32,7.88-8.47,11.43-.12-.13-.24-.27-.36-.41-2.99-3.43-5.7-7.11-8.09-11.01-.37-.6-.73-1.2-1.08-1.81-.66-1.14-1.29-2.29-1.89-3.47-3.78-7.32-6.48-15.29-7.89-23.69-.64-3.79-1.02-7.66-1.11-11.6.04-.69.06-1.38.06-2.08v-2.3c-.06-.6-.09-1.21-.09-1.83v-32.56c0-11.29,9.15-20.43,20.43-20.43,5.65,0,10.75,2.29,14.45,5.98,3.47,3.47,5.69,8.18,5.95,13.4v37.75c0,.71.02,1.41.06,2.11Z"/>
      <path class="cls-6" d="m188.32,345.2c.12.14.24.28.36.41-5.35,6.07-11.61,11.34-18.55,15.59-.6.37-1.2.73-1.81,1.08-1.14.66-2.29,1.29-3.47,1.89-3.66,1.89-7.48,3.51-11.44,4.83-3.96,1.33-8.05,2.35-12.25,3.06-4.45.75-9.01,1.14-13.67,1.14s-9.23-.39-13.67-1.14h-.01c-8.4-1.41-16.37-4.11-23.69-7.89-1.17-.6-2.32-1.23-3.46-1.89-.61-.35-1.21-.71-1.81-1.08-11-6.74-20.27-16.02-27.02-27.02-.37-.59-.73-1.2-1.08-1.81-.66-1.13-1.29-2.29-1.89-3.46-1.89-3.66-3.51-7.48-4.83-11.44-1.33-3.96-2.36-8.05-3.06-12.25h0c-.75-4.45-1.14-9.02-1.14-13.68v-54.64c0-11.27,9.14-20.41,20.41-20.41,5.64,0,10.75,2.28,14.44,5.98,3.69,3.69,5.98,8.8,5.98,14.43v54.64c0,4.19.63,8.23,1.8,12.03,3.96,12.88,14.12,23.04,27,27.01,3.81,1.17,7.84,1.79,12.03,1.79s8.22-.62,12.02-1.79c12.88-3.97,23.05-14.13,27.01-27.01.98-3.17,1.58-6.5,1.74-9.95.09,3.94.47,7.81,1.11,11.6,1.41,8.4,4.11,16.37,7.89,23.69.6,1.18,1.23,2.33,1.89,3.47.35.61.71,1.21,1.08,1.81,2.39,3.9,5.1,7.58,8.09,11.01Z"/>
      <path class="cls-3" d="m209.15,283.17v8.37c0,.71-.01,1.42-.03,2.12-.04-.7-.06-1.4-.06-2.11v-37.75c.02.35.03.7.03,1.05v26.88c.04.47.06.96.06,1.44Z"/>
      <circle class="cls-10" cx="433.4" cy="393.62" r="20.42"/>
      <circle class="cls-4" cx="188.67" cy="254.53" r="20.42"/>
      <circle class="cls-6" cx="67.25" cy="185.5" r="20.42"/>
    </g>
  </g>
</svg>