<?xml version="1.0" encoding="UTF-8"?>
<svg xmlns="http://www.w3.org/2000/svg" viewBox="0 0 500.45 500.45">
  <defs>
    <style>
      .cls-1 {
        stroke: #aa7272;
        stroke-miterlimit: 10;
        stroke-width: 0px;
      }

      .cls-1, .cls-2, .cls-3 {
        fill: #4f4f4f;
      }

      .cls-4 {
        fill: #fff;
      }

      .cls-5 {
        fill: #878787;
      }

      .cls-3 {
        mix-blend-mode: hard-light;
      }

      .cls-6 {
        isolation: isolate;
      }
    </style>
  </defs>
  <g class="cls-6">
    <g id="_圖層_6" data-name="圖層 6">
      <g id="light_black_square" data-name="light black square">
        <rect class="cls-4" width="500.45" height="500.45"/>
        <path class="cls-5" d="m454.29,239.18v102.08c0,11.27-9.14,20.41-20.42,20.41s-20.41-9.14-20.41-20.41v-102.08c0-4.18-.63-8.22-1.8-12.02-3.97-12.88-14.13-23.05-27.01-27.01h0c-3.8-1.17-7.84-1.8-12.02-1.8s-8.22.63-12.02,1.8c-12.88,3.96-23.05,14.13-27.01,27.01-.27.88-.51,1.78-.73,2.69l-1.75,6.25c-3.07,7.4-10.36,12.61-18.87,12.61-11.27,0-20.41-9.14-20.41-20.42,0-2.24.36-4.4,1.03-6.42-.02.04-.04.08-.06.13-.02.04-.04.09-.06.13,1.52-7.16,3.98-13.98,7.25-20.31.6-1.17,1.24-2.33,1.89-3.47.35-.61.71-1.21,1.08-1.81,6.75-11,16.02-20.27,27.02-27.02.6-.37,1.2-.73,1.81-1.08,1.14-.66,2.29-1.29,3.47-1.89,7.32-3.78,15.29-6.48,23.69-7.89,4.45-.75,9.01-1.14,13.67-1.14s9.22.39,13.67,1.14h0c8.4,1.42,16.37,4.12,23.69,7.89,1.17.6,2.33,1.23,3.47,1.89.61.35,1.21.71,1.81,1.08,11,6.74,20.27,16.02,27.02,27.02.37.6.73,1.2,1.08,1.81.66,1.14,1.29,2.29,1.9,3.46,0,0,0,0,0,0,3.77,7.32,6.47,15.29,7.89,23.69h0c.75,4.45,1.14,9.01,1.14,13.67Z"/>
        <path class="cls-2" d="m332.03,230.42v61.25c0,4.66-.39,9.23-1.14,13.67h0c-1.42,8.4-4.11,16.37-7.89,23.69,0,0,0,0,0,0h0c-.6,1.17-1.23,2.33-1.89,3.47-.35.61-.71,1.21-1.08,1.81-6.75,11-16.02,20.27-27.02,27.02-.6.37-1.2.73-1.81,1.08-1.14.66-2.29,1.29-3.46,1.89h0c-7.32,3.78-15.29,6.48-23.69,7.89h0c-4.45.75-9.01,1.14-13.67,1.14s-9.22-.39-13.67-1.14h0c-8.4-1.42-16.37-4.12-23.69-7.89-1.17-.6-2.33-1.23-3.47-1.89-.61-.35-1.21-.71-1.81-1.08-7.1-4.35-13.48-9.76-18.92-16-2.99-3.43-5.7-7.11-8.1-11.01-.37-.6-.73-1.2-1.08-1.81-.66-1.14-1.29-2.29-1.89-3.47-3.78-7.32-6.48-15.29-7.89-23.69-.75-4.45-1.14-9.01-1.14-13.67v-102.08c0-11.28,9.14-20.42,20.42-20.42s19.67,8.41,20.37,19.06c.03.45.04.9.04,1.36v102.08c0,4.18.63,8.22,1.8,12.02,3.96,12.88,14.13,23.05,27.01,27.01,3.8,1.17,7.84,1.8,12.02,1.8s8.22-.63,12.02-1.8c12.88-3.96,23.05-14.13,27.01-27.01,1.17-3.8,1.8-7.84,1.8-12.02v-54.83c.11-3.84.48-7.62,1.11-11.32.19-1.14.41-2.27.64-3.39.02-.04.04-.09.06-.13,3.19-7.04,10.25-11.95,18.47-12h.26c11.21.07,20.28,9.18,20.28,20.41Z"/>
        <path class="cls-2" d="m291.2,231.59v2.36h-.03c0-.79.01-1.57.03-2.36Z"/>
        <line class="cls-2" x1="413.76" y1="225.04" x2="413.76" y2="225.04"/>
        <line class="cls-2" x1="415.22" y1="219.85" x2="415.22" y2="219.85"/>
        <line class="cls-1" x1="415.63" y1="218.25" x2="415.41" y2="219.04"/>
        <line class="cls-1" x1="413.65" y1="225.29" x2="413.53" y2="225.74"/>
        <path class="cls-3" d="m209.63,283.29v8.37c0,3.94-.28,7.81-.82,11.59-.1.7-.2,1.39-.32,2.08h0c-1.42,8.41-4.12,16.38-7.89,23.7-.61,1.17-1.24,2.33-1.9,3.46-.35.61-.71,1.22-1.07,1.81-6.75,11-16.02,20.28-27.02,27.02-.6.37-1.2.73-1.81,1.08-1.14.66-2.29,1.29-3.47,1.89-3.66,1.89-7.48,3.51-11.44,4.83-3.96,1.33-8.05,2.35-12.25,3.06-4.45.75-9.01,1.14-13.67,1.14s-9.23-.39-13.67-1.14h-.01c-8.4-1.41-16.37-4.11-23.69-7.89-1.17-.6-2.32-1.23-3.46-1.89-.61-.35-1.21-.71-1.81-1.08-11-6.74-20.27-16.02-27.02-27.02-.37-.59-.73-1.2-1.08-1.81-.66-1.13-1.29-2.29-1.89-3.46-1.89-3.66-3.51-7.48-4.83-11.44-1.33-3.96-2.36-8.05-3.06-12.25h0c-.75-4.45-1.14-9.02-1.14-13.68v-54.64c0-11.27,9.14-20.41,20.41-20.41,5.64,0,10.75,2.28,14.44,5.98,3.69,3.69,5.98,8.8,5.98,14.43v54.64c0,4.19.63,8.23,1.8,12.03,3.96,12.88,14.12,23.04,27,27.01,3.81,1.17,7.84,1.79,12.03,1.79s8.22-.62,12.02-1.79c12.88-3.97,23.05-14.13,27.01-27.01,1.17-3.8,1.8-7.84,1.8-12.03v-2.3c-.06-.6-.09-1.21-.09-1.83v-32.56c0-11.29,9.15-20.43,20.43-20.43,5.65,0,10.75,2.29,14.45,5.98,3.7,3.7,5.98,8.81,5.98,14.45v26.88c.04.47.06.96.06,1.44Z"/>
        <circle class="cls-2" cx="433.88" cy="393.74" r="20.42"/>
        <circle class="cls-4" cx="189.14" cy="254.65" r="20.42"/>
        <circle class="cls-3" cx="67.72" cy="185.62" r="20.42"/>
      </g>
    </g>
  </g>
</svg>