<svg width="251" height="69" viewBox="0 0 251 69" fill="none" xmlns="http://www.w3.org/2000/svg">
<path d="M109.98 21.9335V49.3518C109.98 52.3789 107.526 54.8339 104.498 54.8339C101.469 54.8339 99.0173 52.3789 99.0173 49.3518V21.9335C99.0173 20.8108 98.8481 19.7257 98.5339 18.705C97.468 15.2455 94.7399 12.5139 91.2816 11.4502C90.2612 11.136 89.1764 10.9668 88.0541 10.9668C86.9317 10.9668 85.8469 11.136 84.8266 11.4502C81.3682 12.5139 78.6375 15.2455 77.5742 18.705C77.5017 18.9414 77.4373 19.1831 77.3782 19.4275L76.9083 21.1063C76.084 23.0939 74.1266 24.4933 71.8416 24.4933C68.8155 24.4933 66.3613 22.0383 66.3613 19.0085C66.3613 18.4069 66.458 17.8267 66.6379 17.2841C66.6325 17.2949 66.6272 17.3056 66.6218 17.3191C66.6164 17.3298 66.611 17.3432 66.6057 17.354C67.0138 15.4308 67.6743 13.599 68.5524 11.8988C68.7135 11.5845 68.8853 11.273 69.0598 10.9668C69.1538 10.8029 69.2505 10.6418 69.3498 10.4806C71.1623 7.52606 73.6513 5.03617 76.6049 3.22315C76.766 3.12377 76.9271 3.02708 77.0909 2.93307C77.397 2.75579 77.7058 2.58658 78.0226 2.42542C79.9881 1.41013 82.1281 0.68492 84.3836 0.306199C85.5784 0.104752 86.8028 0 88.0541 0C89.3053 0 90.5297 0.104752 91.7246 0.306199C93.9801 0.687606 96.1201 1.41281 98.0855 2.42542C98.3997 2.58658 98.7112 2.75579 99.0173 2.93307C99.1811 3.02708 99.3422 3.12377 99.5033 3.22315C102.457 5.03349 104.946 7.52606 106.758 10.4806C106.858 10.6418 106.954 10.8029 107.048 10.9668C107.226 11.273 107.395 11.5819 107.558 11.8961C108.571 13.8622 109.296 16.0029 109.677 18.2592C109.878 19.4544 109.983 20.6792 109.983 21.9309L109.98 21.9335Z" fill="#4F4F4F"/>
<path d="M77.1527 19.5807V36.0322C77.1527 37.2838 77.048 38.5113 76.8467 39.7039C76.4654 41.9601 75.7431 44.1008 74.7281 46.0669C74.567 46.3812 74.3979 46.6927 74.2206 46.9989C74.1267 47.1628 74.03 47.3239 73.9307 47.4851C72.1182 50.4396 69.6292 52.9295 66.6756 54.7425C66.5145 54.8419 66.3534 54.9386 66.1896 55.0326C65.8835 55.2099 65.5747 55.3791 65.2605 55.5403C63.2951 56.5556 61.1551 57.2808 58.8996 57.6595C57.7047 57.861 56.4803 57.9657 55.2291 57.9657C53.9778 57.9657 52.7534 57.861 51.5586 57.6595C49.3031 57.2781 47.1631 56.5529 45.1976 55.5403C44.8835 55.3791 44.572 55.2099 44.2659 55.0326C44.1021 54.9386 43.941 54.8419 43.7799 54.7425C41.8735 53.5742 40.1604 52.1211 38.6997 50.445C37.8969 49.5237 37.1692 48.5353 36.5248 47.4878C36.4255 47.3266 36.3288 47.1655 36.2348 47.0016C36.0576 46.6954 35.8885 46.3865 35.7274 46.0696C34.7124 44.1035 33.9874 41.9628 33.6088 39.7066C33.4075 38.5113 33.3027 37.2865 33.3027 36.0348V8.61657C33.3027 5.5868 35.7569 3.13184 38.7857 3.13184C41.8144 3.13184 44.0672 5.39073 44.2552 8.25127C44.2632 8.37214 44.2659 8.49301 44.2659 8.61657V36.0348C44.2659 37.1576 44.4351 38.2427 44.7492 39.2634C45.8125 42.7229 48.5432 45.4545 52.0016 46.5181C53.022 46.8324 54.1067 47.0016 55.2291 47.0016C56.3514 47.0016 57.4362 46.8324 58.4566 46.5181C61.9149 45.4545 64.6457 42.7229 65.7089 39.2634C66.0231 38.2427 66.1923 37.1576 66.1923 36.0348V21.3077C66.2218 20.2763 66.3211 19.261 66.4903 18.2672C66.5413 17.961 66.6004 17.6575 66.6622 17.3567C66.6675 17.3459 66.6729 17.3325 66.6783 17.3218C67.5348 15.4308 69.4305 14.112 71.6376 14.0986H71.7074C74.7174 14.1174 77.1527 16.5643 77.1527 19.5807Z" fill="#4F4F4F"/>
<path d="M66.1897 19.8916V20.5255H66.1816C66.1816 20.3133 66.1843 20.1038 66.1897 19.8916Z" fill="#4F4F4F"/>
<g style="mix-blend-mode:hard-light">
<path d="M44.2873 33.7811V36.0292C44.2873 37.0875 44.2121 38.127 44.0671 39.1422C44.0402 39.3303 44.0134 39.5156 43.9812 39.7009C43.5999 41.9598 42.8749 44.1005 41.8626 46.0666C41.6989 46.3809 41.5297 46.6925 41.3525 46.996C41.2585 47.1598 41.1618 47.3237 41.0652 47.4821C39.2528 50.4367 36.7637 52.9293 33.8101 54.7396C33.649 54.839 33.4879 54.9357 33.3241 55.0297C33.018 55.207 32.7092 55.3762 32.3924 55.5373C31.4096 56.045 30.3839 56.4801 29.3206 56.8347C28.2574 57.1919 27.1592 57.4659 26.0314 57.6566C24.8366 57.858 23.6122 57.9628 22.3609 57.9628C21.1097 57.9628 19.8826 57.858 18.6904 57.6566H18.6877C16.4323 57.2778 14.2923 56.5526 12.3268 55.5373C12.0126 55.3762 11.7038 55.207 11.3977 55.0297C11.234 54.9357 11.0729 54.839 10.9117 54.7396C7.95816 52.9293 5.46909 50.4367 3.65666 47.4821C3.55732 47.3237 3.46065 47.1598 3.36668 46.996C3.18946 46.6925 3.0203 46.3809 2.8592 46.0666C2.35172 45.0836 1.91673 44.0576 1.5623 42.9939C1.20519 41.9303 0.928625 40.8317 0.740669 39.7036C0.539288 38.5084 0.43457 37.2809 0.43457 36.0292V21.3531C0.43457 18.3261 2.88873 15.8711 5.91481 15.8711C7.4292 15.8711 8.80128 16.4835 9.79207 17.4773C10.7829 18.4684 11.3977 19.8409 11.3977 21.3531V36.0292C11.3977 37.1546 11.5669 38.2398 11.8811 39.2604C12.9444 42.7199 15.6724 45.4489 19.1308 46.5152C20.1538 46.8295 21.2359 46.996 22.3609 46.996C23.486 46.996 24.5681 46.8295 25.5884 46.5152C29.0468 45.4489 31.7775 42.7199 32.8408 39.2604C33.1549 38.2398 33.3241 37.1546 33.3241 36.0292V35.4114C33.308 35.2503 33.2999 35.0864 33.2999 34.9199V26.1744C33.2999 23.142 35.7568 20.687 38.7855 20.687C40.3026 20.687 41.672 21.3021 42.6655 22.2932C43.659 23.287 44.2712 24.6596 44.2712 26.1744V33.3943C44.2819 33.5205 44.2873 33.6521 44.2873 33.7811Z" fill="#4F4F4F"/>
</g>
<path d="M104.498 68.9323C107.526 68.9323 109.981 66.4767 109.981 63.4476C109.981 60.4185 107.526 57.9629 104.498 57.9629C101.469 57.9629 99.0146 60.4185 99.0146 63.4476C99.0146 66.4767 101.469 68.9323 104.498 68.9323Z" fill="#4F4F4F"/>
<path d="M38.7857 31.573C41.8138 31.573 44.2686 29.1174 44.2686 26.0882C44.2686 23.0591 41.8138 20.6035 38.7857 20.6035C35.7575 20.6035 33.3027 23.0591 33.3027 26.0882C33.3027 29.1174 35.7575 31.573 38.7857 31.573Z" fill="white"/>
<g style="mix-blend-mode:hard-light">
<path d="M6.18313 13.032C9.21126 13.032 11.6661 10.5764 11.6661 7.54723C11.6661 4.5181 9.21126 2.0625 6.18313 2.0625C3.15499 2.0625 0.700195 4.5181 0.700195 7.54723C0.700195 10.5764 3.15499 13.032 6.18313 13.032Z" fill="#4F4F4F"/>
</g>
<path d="M123.497 32.5137C122.906 32.5137 122.407 32.7178 121.999 33.1261C121.591 33.5343 121.387 34.05 121.387 34.6678V52.747C121.387 53.3675 121.583 53.8805 121.977 54.2887C122.372 54.697 122.88 54.9011 123.497 54.9011C124.115 54.9011 124.622 54.697 125.017 54.2887C125.412 53.8805 125.608 53.3675 125.608 52.747V34.6678C125.608 34.05 125.412 33.5343 125.017 33.1261C124.622 32.7178 124.115 32.5137 123.497 32.5137Z" fill="black"/>
<path d="M123.497 30.4958C124.663 30.4958 125.608 29.5506 125.608 28.3846C125.608 27.2186 124.663 26.2734 123.497 26.2734C122.332 26.2734 121.387 27.2186 121.387 28.3846C121.387 29.5506 122.332 30.4958 123.497 30.4958Z" fill="black"/>
<path d="M142.752 32.1753C144.749 32.1753 146.299 32.5916 147.397 33.4216C148.495 34.2515 149.26 35.3635 149.698 36.7575C150.133 38.1516 150.353 39.7094 150.353 41.4257V52.7471C150.353 53.3675 150.149 53.8805 149.741 54.2888C149.333 54.6971 148.833 54.9012 148.243 54.9012C147.652 54.9012 147.11 54.6971 146.701 54.2888C146.293 53.8805 146.089 53.3675 146.089 52.7471V41.4687C146.089 40.4561 145.947 39.5456 145.668 38.7451C145.386 37.942 144.908 37.3028 144.231 36.822C143.554 36.3439 142.599 36.1049 141.358 36.1049C140.204 36.1049 139.189 36.3439 138.319 36.822C137.446 37.3001 136.761 37.942 136.27 38.7451C135.776 39.5483 135.531 40.4561 135.531 41.4687V52.7471C135.531 53.3675 135.327 53.8805 134.919 54.2888C134.511 54.6971 134.012 54.9012 133.421 54.9012C132.83 54.9012 132.288 54.6971 131.88 54.2888C131.472 53.8805 131.268 53.3675 131.268 52.7471V34.8344C131.268 34.2166 131.472 33.7009 131.88 33.2927C132.288 32.8844 132.801 32.6803 133.421 32.6803C134.041 32.6803 134.511 32.8844 134.919 33.2927C135.327 33.7009 135.531 34.2166 135.531 34.8344V37.2007L134.772 37.6224C134.968 37.002 135.314 36.3761 135.805 35.7422C136.297 35.1084 136.895 34.5175 137.599 33.9668C138.302 33.4189 139.092 32.9811 139.965 32.6561C140.837 32.3338 141.766 32.1699 142.752 32.1699V32.1753Z" fill="black"/>
<path d="M154.915 51.4388C154.663 51.0439 154.55 50.5873 154.577 50.0662C154.604 49.5451 154.899 49.102 155.463 48.7367C155.858 48.4842 156.271 48.3768 156.709 48.4197C157.144 48.4627 157.56 48.6803 157.955 49.0751C158.742 49.948 159.622 50.6383 160.594 51.146C161.566 51.6536 162.74 51.9061 164.12 51.9061C164.684 51.8792 165.261 51.7852 165.852 51.6321C166.442 51.479 166.95 51.197 167.372 50.7861C167.793 50.3778 168.005 49.7788 168.005 48.9918C168.005 48.2881 167.78 47.7321 167.329 47.3239C166.877 46.9156 166.287 46.5718 165.554 46.2898C164.821 46.0077 164.018 45.7553 163.148 45.5296C162.246 45.2772 161.346 44.9951 160.444 44.6836C159.542 44.3747 158.72 43.9718 157.974 43.4803C157.227 42.9887 156.629 42.3468 156.18 41.5571C155.729 40.7701 155.503 39.7978 155.503 38.6428C155.503 37.3187 155.869 36.1798 156.602 35.2209C157.332 34.2647 158.304 33.518 159.515 32.9808C160.726 32.4463 162.02 32.1777 163.4 32.1777C164.246 32.1777 165.116 32.2825 166.018 32.4947C166.92 32.7069 167.793 33.0372 168.636 33.4885C169.482 33.9397 170.212 34.5306 170.833 35.2639C171.115 35.6292 171.276 36.067 171.319 36.5746C171.362 37.0823 171.128 37.547 170.62 37.9687C170.282 38.2507 169.874 38.3689 169.396 38.3286C168.918 38.2856 168.523 38.1245 168.215 37.8424C167.68 37.1656 166.99 36.6472 166.144 36.2792C165.299 35.9139 164.343 35.7313 163.271 35.7313C162.737 35.7313 162.181 35.8011 161.604 35.9435C161.027 36.0858 160.541 36.3517 160.146 36.7465C159.751 37.1414 159.555 37.7189 159.555 38.479C159.555 39.1827 159.789 39.7468 160.253 40.1685C160.718 40.5902 161.33 40.9447 162.09 41.224C162.85 41.5061 163.68 41.7585 164.582 41.9842C165.454 42.2098 166.319 42.4784 167.178 42.7873C168.037 43.0962 168.811 43.4991 169.501 43.9906C170.191 44.4848 170.752 45.116 171.19 45.8922C171.625 46.6685 171.845 47.6462 171.845 48.828C171.845 50.2086 171.445 51.385 170.642 52.3547C169.839 53.3243 168.827 54.0656 167.602 54.5733C166.378 55.0809 165.089 55.3334 163.739 55.3334C162.133 55.3334 160.535 55.0433 158.946 54.4685C157.356 53.891 156.011 52.8838 154.913 51.4468L154.915 51.4388Z" fill="black"/>
<path d="M176.114 32.9381H186.038C186.602 32.9381 187.072 33.1288 187.453 33.5075C187.835 33.8889 188.022 34.359 188.022 34.923C188.022 35.4871 187.832 35.9517 187.453 36.317C187.072 36.6823 186.602 36.865 186.038 36.865H176.114C175.55 36.865 175.08 36.6743 174.699 36.2955C174.318 35.9168 174.13 35.4441 174.13 34.88C174.13 34.316 174.321 33.8513 174.699 33.486C175.08 33.1207 175.55 32.9381 176.114 32.9381ZM180.547 27.4453C181.167 27.4453 181.672 27.6494 182.067 28.0577C182.462 28.466 182.658 28.9817 182.658 29.5995V49.2016C182.658 49.7092 182.741 50.1175 182.91 50.4264C183.079 50.7353 183.31 50.9475 183.608 51.0603C183.904 51.1731 184.207 51.2295 184.516 51.2295C184.825 51.2295 185.101 51.1731 185.34 51.0603C185.579 50.9475 185.869 50.8911 186.205 50.8911C186.54 50.8911 186.852 51.0468 187.134 51.3557C187.416 51.6673 187.555 52.089 187.555 52.6235C187.555 53.3004 187.19 53.8483 186.457 54.27C185.724 54.6917 184.937 54.9039 184.092 54.9039C183.614 54.9039 183.05 54.8609 182.403 54.7776C181.756 54.6944 181.127 54.4822 180.523 54.1438C179.916 53.8053 179.411 53.2628 179.003 52.5161C178.595 51.7694 178.391 50.7218 178.391 49.3681V29.5995C178.391 28.979 178.603 28.466 179.025 28.0577C179.446 27.6494 179.954 27.4453 180.545 27.4453H180.547Z" fill="black"/>
<path d="M210.91 32.344C211.528 32.344 212.035 32.5482 212.43 32.9564C212.825 33.3647 213.021 33.8804 213.021 34.4982V52.7466C213.021 53.367 212.825 53.88 212.43 54.2883C212.035 54.6966 211.528 54.9007 210.91 54.9007C210.293 54.9007 209.785 54.6966 209.39 54.2883C208.996 53.88 208.8 53.367 208.8 52.7466V49.7061L209.686 49.8753C209.686 50.3534 209.482 50.9094 209.074 51.5433C208.665 52.1771 208.11 52.7761 207.406 53.3375C206.703 53.9015 205.87 54.3716 204.914 54.753C203.956 55.1344 202.93 55.3224 201.832 55.3224C199.891 55.3224 198.143 54.8228 196.596 53.8236C195.047 52.8245 193.822 51.4519 192.923 49.7061C192.021 47.9602 191.572 45.9753 191.572 43.7486C191.572 41.5219 192.023 39.4618 192.923 37.7294C193.822 35.9969 195.041 34.6378 196.575 33.6521C198.108 32.6663 199.805 32.1748 201.663 32.1748C202.874 32.1748 203.991 32.3709 205.019 32.7657C206.048 33.1606 206.942 33.6682 207.702 34.286C208.461 34.9064 209.052 35.5618 209.476 36.2494C209.898 36.9397 210.11 37.5951 210.11 38.2128L208.8 38.3391V34.4955C208.8 33.9046 208.996 33.3969 209.39 32.9752C209.785 32.5535 210.29 32.3413 210.91 32.3413V32.344ZM202.296 51.4385C203.62 51.4385 204.788 51.1001 205.8 50.4259C206.813 49.749 207.602 48.8278 208.166 47.6594C208.73 46.491 209.012 45.1883 209.012 43.7513C209.012 42.3143 208.73 41.0116 208.166 39.8432C207.602 38.6748 206.815 37.7589 205.8 37.0982C204.786 36.4374 203.618 36.1044 202.296 36.1044C200.975 36.1044 199.853 36.4347 198.854 37.0982C197.855 37.7589 197.066 38.6695 196.489 39.8217C195.911 40.9767 195.624 42.2874 195.624 43.7513C195.624 45.2151 195.911 46.491 196.489 47.6594C197.066 48.8278 197.853 49.7517 198.854 50.4259C199.853 51.1028 201 51.4385 202.296 51.4385Z" fill="black"/>
<path d="M230.124 33.0639C230.688 33.0639 231.153 33.2466 231.518 33.6119C231.883 33.9772 232.066 34.4418 232.066 35.0059C232.066 35.5699 231.883 36.0346 231.518 36.3999C231.153 36.7652 230.688 36.9505 230.124 36.9505H219.185C218.651 36.9505 218.192 36.7679 217.813 36.3999C217.432 36.0346 217.244 35.5699 217.244 35.0059C217.244 34.4418 217.435 33.9772 217.813 33.6119C218.195 33.2466 218.651 33.0639 219.185 33.0639H230.124ZM229.279 23.6846C229.813 23.6846 230.363 23.7544 230.925 23.8968C231.488 24.0391 231.958 24.2782 232.34 24.6139C232.721 24.9497 232.909 25.3902 232.909 25.9247C232.909 26.5156 232.74 26.9883 232.401 27.3402C232.063 27.692 231.668 27.8693 231.22 27.8693C230.938 27.8693 230.559 27.7995 230.079 27.6571C229.601 27.5174 229.12 27.4449 228.642 27.4449C227.995 27.4449 227.474 27.5926 227.08 27.8881C226.685 28.1836 226.403 28.5488 226.234 28.9867C226.065 29.4245 225.981 29.8515 225.981 30.2759V52.7493C225.981 53.3698 225.777 53.8828 225.369 54.2911C224.961 54.6993 224.462 54.9035 223.871 54.9035C223.28 54.9035 222.746 54.6993 222.351 54.2911C221.956 53.8828 221.76 53.3698 221.76 52.7493V30.3189C221.76 28.3743 222.4 26.7842 223.683 25.5459C224.964 24.3077 226.83 23.6873 229.279 23.6873V23.6846ZM247.481 33.0639C248.045 33.0639 248.509 33.2466 248.874 33.6119C249.24 33.9772 249.422 34.4418 249.422 35.0059C249.422 35.5699 249.24 36.0346 248.874 36.3999C248.509 36.7652 248.045 36.9505 247.481 36.9505H236.542C236.007 36.9505 235.548 36.7679 235.17 36.3999C234.788 36.0346 234.6 35.5699 234.6 35.0059C234.6 34.4418 234.791 33.9772 235.17 33.6119C235.551 33.2466 236.007 33.0639 236.542 33.0639H247.481ZM246.635 23.6846C247.169 23.6846 247.72 23.7544 248.281 23.8968C248.845 24.0391 249.315 24.2782 249.696 24.6139C250.077 24.9497 250.265 25.3902 250.265 25.9247C250.265 26.5156 250.096 26.9883 249.758 27.3402C249.419 27.692 249.025 27.8693 248.576 27.8693C248.294 27.8693 247.916 27.7995 247.435 27.6571C246.957 27.5174 246.477 27.4449 245.999 27.4449C245.352 27.4449 244.831 27.5926 244.436 27.8881C244.041 28.1836 243.759 28.5488 243.59 28.9867C243.421 29.4245 243.338 29.8515 243.338 30.2759V52.7493C243.338 53.3698 243.134 53.8828 242.726 54.2911C242.317 54.6993 241.818 54.9035 241.227 54.9035C240.637 54.9035 240.102 54.6993 239.708 54.2911C239.313 53.8828 239.117 53.3698 239.117 52.7493V30.3189C239.117 28.3743 239.756 26.7842 241.039 25.5459C242.32 24.3077 244.186 23.6873 246.635 23.6873V23.6846Z" fill="black"/>
</svg>
