<svg width="118" height="75" viewBox="0 0 118 75" fill="none" xmlns="http://www.w3.org/2000/svg">
<path d="M117.816 24.4151C117.815 24.416 117.814 24.4173 117.814 24.4186V53.8156C117.814 57.0614 115.182 59.6937 111.933 59.6937C108.685 59.6937 106.055 57.0614 106.055 53.8156V24.4165C106.055 23.2127 105.874 22.0492 105.537 20.9548C104.393 17.2453 101.467 14.3164 97.7579 13.1759C96.6635 12.8389 95.5 12.6575 94.2961 12.6575C93.0923 12.6575 91.9288 12.8389 90.8344 13.1759C87.1249 14.3164 84.1959 17.2453 83.0555 20.9548C82.9777 21.2082 82.9086 21.4674 82.8452 21.7295L82.3412 23.5295C81.4571 25.6607 79.3575 27.1612 76.9067 27.1612C73.6609 27.1612 71.0286 24.5289 71.0286 21.2802C71.0286 20.6496 71.1276 20.0409 71.3124 19.4705C71.3135 19.467 71.3093 19.4653 71.3079 19.4687C71.3052 19.4742 71.298 19.4718 71.2992 19.4658C71.7377 17.4184 72.443 15.468 73.3786 13.6569C73.5514 13.3199 73.7358 12.9858 73.923 12.6575C74.0238 12.4818 74.1274 12.309 74.234 12.1362C76.178 8.96821 78.8478 6.29844 82.0158 4.35444C82.1886 4.24788 82.3614 4.14421 82.5371 4.04341C82.8654 3.85333 83.1966 3.67188 83.5364 3.49908C85.6446 2.41044 87.9399 1.63284 90.3591 1.22676C91.6407 1.01076 92.954 0.898438 94.2961 0.898438C95.6382 0.898438 96.9515 1.01076 98.2331 1.22676C100.652 1.63572 102.948 2.41332 105.056 3.49908C105.393 3.67188 105.727 3.85333 106.055 4.04341C106.231 4.14421 106.404 4.24788 106.576 4.35444C109.744 6.29556 112.414 8.96821 114.358 12.1362C114.465 12.309 114.568 12.4818 114.669 12.6575C114.859 12.9858 115.041 13.317 115.216 13.654C116.302 15.7621 117.08 18.0575 117.489 20.4767C117.705 21.7577 117.817 23.0703 117.817 24.4116C117.817 24.4129 117.817 24.4142 117.816 24.4151Z" fill="url(#paint0_linear_611_2750)"/>
<path d="M82.6037 21.893V39.533C82.6037 40.8751 82.4913 42.1913 82.2753 43.47C81.8664 45.8892 81.0917 48.1846 80.003 50.2927C79.8302 50.6297 79.6488 50.9638 79.4587 51.2921C79.3579 51.4678 79.2542 51.6406 79.1476 51.8134C77.2036 54.9814 74.5339 57.6511 71.3659 59.5951C71.1931 59.7017 71.0203 59.8054 70.8446 59.9062C70.5163 60.0963 70.1851 60.2777 69.8481 60.4505C67.74 61.5391 65.4446 62.3167 63.0254 62.7228C61.7438 62.9388 60.4305 63.0511 59.0884 63.0511C57.7463 63.0511 56.4331 62.9388 55.1515 62.7228C52.7323 62.3139 50.4369 61.5363 48.3287 60.4505C47.9918 60.2777 47.6577 60.0963 47.3294 59.9062C47.1537 59.8054 46.9809 59.7017 46.8081 59.5951C44.7633 58.3423 42.9258 56.7843 41.3591 54.9871C40.498 53.9993 39.7175 52.9394 39.0263 51.8162C38.9198 51.6434 38.8161 51.4706 38.7153 51.295C38.5252 50.9666 38.3438 50.6354 38.171 50.2956C37.0823 48.1874 36.3047 45.8921 35.8986 43.4729C35.6826 42.1913 35.5703 40.878 35.5703 39.5359V10.1368C35.5703 6.88818 38.2026 4.25586 41.4513 4.25586C44.6999 4.25586 47.1163 6.67794 47.3179 9.74515C47.3265 9.87475 47.3294 10.0043 47.3294 10.1368V39.5359C47.3294 40.7397 47.5108 41.9033 47.8478 42.9977C48.9883 46.7071 51.9172 49.6361 55.6267 50.7766C56.7211 51.1135 57.8846 51.295 59.0884 51.295C60.2923 51.295 61.4558 51.1135 62.5502 50.7766C66.2596 49.6361 69.1886 46.7071 70.3291 42.9977C70.666 41.9033 70.8475 40.7397 70.8475 39.5359V23.7448C70.8792 22.6389 70.9857 21.5503 71.1672 20.4847C71.2196 20.1701 71.28 19.8581 71.3432 19.5488C71.3487 19.5219 71.3565 19.4954 71.3688 19.4709C72.2875 17.4434 74.3208 16.0293 76.6881 16.0149H76.763C79.9915 16.0351 82.6037 18.6588 82.6037 21.893Z" fill="url(#paint1_linear_611_2750)"/>
<g style="mix-blend-mode:hard-light">
<path d="M47.3529 37.1209V39.5314C47.3529 40.6661 47.2722 41.7807 47.1167 42.8693C47.0879 43.0709 47.0591 43.2697 47.0245 43.4684C46.6156 45.8905 45.838 48.1858 44.7522 50.294C44.5765 50.631 44.3951 50.965 44.205 51.2905C44.1042 51.4661 44.0005 51.6418 43.8969 51.8117C41.9529 54.9798 39.2831 57.6524 36.1151 59.5935C35.9423 59.7001 35.7695 59.8038 35.5938 59.9046C35.2655 60.0946 34.9343 60.2761 34.5945 60.4489C33.5404 60.9932 32.4402 61.4598 31.2997 61.8399C30.1592 62.223 28.9813 62.5167 27.7717 62.7212C26.4901 62.9372 25.1768 63.0495 23.8348 63.0495C22.4932 63.0495 21.1775 62.9373 19.8992 62.7214C19.8983 62.7213 19.8973 62.7212 19.8963 62.7212C19.8954 62.7212 19.8944 62.7211 19.8935 62.721C17.4748 62.3148 15.1799 61.5373 13.0722 60.4489C12.7352 60.2761 12.404 60.0946 12.0757 59.9046C11.9 59.8038 11.7272 59.7001 11.5544 59.5935C8.38642 57.6524 5.71666 54.9798 3.77265 51.8117C3.66609 51.6418 3.56241 51.4661 3.46161 51.2905C3.27153 50.965 3.09009 50.631 2.91729 50.294C2.37297 49.2399 1.90641 48.1397 1.52625 46.9993C1.14321 45.8588 0.846571 44.6809 0.644971 43.4713C0.42897 42.1897 0.31665 40.8735 0.31665 39.5314V23.7951C0.31665 20.5493 2.94897 17.917 6.19474 17.917C7.81906 17.917 9.29074 18.5736 10.3535 19.6392C11.4162 20.702 12.0757 22.1736 12.0757 23.7951V39.5314C12.0757 40.7381 12.2571 41.9017 12.5941 42.9961C13.7346 46.7055 16.6607 49.6316 20.3701 50.7749C21.4674 51.1119 22.628 51.2905 23.8348 51.2905C25.0415 51.2905 26.2021 51.1119 27.2965 50.7749C31.006 49.6316 33.9349 46.7055 35.0754 42.9961C35.4124 41.9017 35.5938 40.7381 35.5938 39.5314V38.869C35.5765 38.6962 35.5679 38.5205 35.5679 38.342V28.9647C35.5679 25.7132 38.2031 23.0808 41.4517 23.0808C43.0789 23.0808 44.5477 23.7404 45.6133 24.8031C46.6789 25.8687 47.3356 27.3404 47.3356 28.9647V36.7061C47.3471 36.8415 47.3529 36.9826 47.3529 37.1209Z" fill="white"/>
</g>
<path d="M111.933 74.8117C115.181 74.8117 117.814 72.1787 117.814 68.9308C117.814 65.6828 115.181 63.0498 111.933 63.0498C108.685 63.0498 106.052 65.6828 106.052 68.9308C106.052 72.1787 108.685 74.8117 111.933 74.8117Z" fill="white"/>
<path d="M41.4513 34.7502C44.6992 34.7502 47.3323 32.1172 47.3323 28.8692C47.3323 25.6213 44.6992 22.9883 41.4513 22.9883C38.2033 22.9883 35.5703 25.6213 35.5703 28.8692C35.5703 32.1172 38.2033 34.7502 41.4513 34.7502Z" fill="#262626"/>
<g style="mix-blend-mode:hard-light">
<path d="M6.48229 14.8703C9.73025 14.8703 12.3633 12.2373 12.3633 8.98937C12.3633 5.7414 9.73025 3.1084 6.48229 3.1084C3.23432 3.1084 0.601318 5.7414 0.601318 8.98937C0.601318 12.2373 3.23432 14.8703 6.48229 14.8703Z" fill="white"/>
</g>
<defs>
<linearGradient id="paint0_linear_611_2750" x1="105.505" y1="25.0588" x2="70.8068" y2="56.4451" gradientUnits="userSpaceOnUse">
<stop stop-color="white"/>
<stop offset="1" stop-color="#919191"/>
</linearGradient>
<linearGradient id="paint1_linear_611_2750" x1="81.6417" y1="23.7103" x2="36.6071" y2="38.6661" gradientUnits="userSpaceOnUse">
<stop stop-color="white"/>
<stop offset="0.43" stop-color="#FDFDFD"/>
<stop offset="0.59" stop-color="#F6F6F6"/>
<stop offset="0.71" stop-color="#EAEAEA"/>
<stop offset="0.8" stop-color="#D9D9D9"/>
<stop offset="0.88" stop-color="#C3C3C3"/>
<stop offset="0.95" stop-color="#A8A8A8"/>
<stop offset="0.99" stop-color="#989898"/>
</linearGradient>
</defs>
</svg>
