<svg width="244" height="65" viewBox="0 0 244 65" fill="none" xmlns="http://www.w3.org/2000/svg">
<path d="M100.5 65C102.985 65 105 62.9853 105 60.5C105 58.0147 102.985 56 100.5 56C98.0147 56 96 58.0147 96 60.5C96 62.9853 98.0147 65 100.5 65Z" fill="white"/>
<path d="M105.406 21.0964C105.405 21.0972 105.405 21.0983 105.405 21.0995V47.471C105.405 50.3827 103.043 52.7441 100.129 52.7441C97.2148 52.7441 94.856 50.3827 94.856 47.471V21.0977C94.856 20.0177 94.6932 18.9739 94.391 17.9922C93.3653 14.6645 90.7403 12.037 87.4127 11.0139C86.4309 10.7116 85.3871 10.5488 84.3072 10.5488C83.2272 10.5488 82.1835 10.7116 81.2017 11.0139C77.874 12.037 75.2465 14.6645 74.2234 17.9922C74.1536 18.2195 74.0916 18.4521 74.0348 18.6872L73.5827 20.3019C72.7895 22.2138 70.906 23.5598 68.7074 23.5598C65.7957 23.5598 63.4343 21.1984 63.4343 18.2841C63.4343 17.7184 63.5232 17.1724 63.6889 16.6606C63.6899 16.6575 63.6861 16.656 63.6849 16.659C63.6824 16.664 63.6759 16.6619 63.6771 16.6564C64.0704 14.8198 64.7032 13.0701 65.5425 11.4453C65.6975 11.1431 65.8629 10.8434 66.0308 10.5488C66.1212 10.3912 66.2142 10.2362 66.3098 10.0812C68.0538 7.23924 70.4488 4.84425 73.2907 3.10032C73.4457 3.00472 73.6007 2.91172 73.7583 2.82129C74.0529 2.65077 74.35 2.488 74.6549 2.33299C76.546 1.35639 78.6052 0.658817 80.7754 0.29453C81.9251 0.10076 83.1032 0 84.3072 0C85.5111 0 86.6893 0.10076 87.839 0.29453C90.0092 0.661401 92.0683 1.35897 93.9595 2.33299C94.2618 2.488 94.5615 2.65077 94.856 2.82129C95.0136 2.91172 95.1686 3.00472 95.3236 3.10032C98.1656 4.84166 100.561 7.23924 102.305 10.0812C102.4 10.2362 102.493 10.3912 102.584 10.5488C102.754 10.8434 102.917 11.1405 103.074 11.4428C104.048 13.334 104.746 15.3931 105.113 17.5633C105.307 18.7124 105.407 19.8899 105.407 21.0933C105.407 21.0944 105.407 21.0955 105.406 21.0964Z" fill="url(#paint0_linear_1056_7541)"/>
<path d="M73.8182 18.8327V34.6572C73.8182 35.8612 73.7175 37.0419 73.5237 38.189C73.1568 40.3592 72.4618 42.4184 71.4852 44.3096C71.3302 44.6118 71.1675 44.9115 70.9969 45.2061C70.9065 45.3637 70.8135 45.5187 70.7179 45.6737C68.974 48.5157 66.579 50.9107 63.737 52.6546C63.582 52.7502 63.427 52.8432 63.2694 52.9336C62.9749 53.1041 62.6778 53.2669 62.3755 53.4219C60.4843 54.3985 58.4252 55.0961 56.2549 55.4604C55.1052 55.6541 53.9271 55.7549 52.7232 55.7549C51.5192 55.7549 50.3411 55.6541 49.1914 55.4604C47.0212 55.0935 44.962 54.3959 43.0708 53.4219C42.7685 53.2669 42.4689 53.1041 42.1743 52.9336C42.0167 52.8432 41.8617 52.7502 41.7067 52.6546C39.8723 51.5307 38.224 50.133 36.8185 48.5208C36.046 47.6347 35.3459 46.6839 34.7258 45.6763C34.6302 45.5213 34.5372 45.3663 34.4468 45.2087C34.2763 44.9141 34.1135 44.617 33.9585 44.3121C32.9819 42.4209 32.2843 40.3618 31.92 38.1916C31.7262 37.0419 31.6255 35.8638 31.6255 34.6598V8.28645C31.6255 5.37215 33.9869 3.01074 36.9012 3.01074C39.8155 3.01074 41.9831 5.18355 42.164 7.93508C42.1717 8.05134 42.1743 8.1676 42.1743 8.28645V34.6598C42.1743 35.7398 42.3371 36.7835 42.6394 37.7653C43.6625 41.093 46.29 43.7205 49.6177 44.7436C50.5994 45.0459 51.6432 45.2087 52.7232 45.2087C53.8031 45.2087 54.8469 45.0459 55.8286 44.7436C59.1563 43.7205 61.7838 41.093 62.8069 37.7653C63.1092 36.7835 63.272 35.7398 63.272 34.6598V20.4939C63.3004 19.5018 63.396 18.5252 63.5588 17.5693C63.6058 17.2871 63.66 17.0072 63.7167 16.7297C63.7216 16.7057 63.7286 16.6819 63.7396 16.6599C64.5638 14.841 66.3878 13.5725 68.5115 13.5596H68.5787C71.4749 13.5777 73.8182 15.9313 73.8182 18.8327Z" fill="url(#paint1_linear_1056_7541)"/>
<g style="mix-blend-mode:hard-light">
<path d="M42.1953 32.494V34.6565C42.1953 35.6744 42.123 36.6743 41.9835 37.6509C41.9576 37.8317 41.9318 38.01 41.9008 38.1883C41.5339 40.3611 40.8363 42.4202 39.8623 44.3114C39.7047 44.6137 39.542 44.9134 39.3715 45.2053C39.281 45.3629 39.188 45.5205 39.095 45.673C37.3511 48.5149 34.9561 50.9125 32.1141 52.6539C31.9591 52.7494 31.8041 52.8425 31.6465 52.9329C31.352 53.1034 31.0548 53.2662 30.75 53.4212C29.8044 53.9095 28.8174 54.328 27.7943 54.6691C26.7712 55.0127 25.7145 55.2762 24.6294 55.4596C23.4797 55.6534 22.3016 55.7542 21.0977 55.7542C19.8941 55.7542 18.7139 55.6535 17.5672 55.4599C17.5663 55.4597 17.5654 55.4596 17.5646 55.4596C17.5637 55.4596 17.5629 55.4596 17.562 55.4594C15.3923 55.0951 13.3336 54.3976 11.4428 53.4212C11.1405 53.2662 10.8434 53.1034 10.5488 52.9329C10.3912 52.8425 10.2362 52.7494 10.0812 52.6539C7.23924 50.9125 4.84425 48.5149 3.10032 45.673C3.00472 45.5205 2.91172 45.3629 2.82129 45.2053C2.65077 44.9134 2.48801 44.6137 2.33299 44.3114C1.84469 43.3658 1.42615 42.3789 1.08511 41.3558C0.741493 40.3327 0.475382 39.276 0.29453 38.1909C0.10076 37.0412 0 35.8605 0 34.6565V20.5397C0 17.628 2.36141 15.2666 5.27312 15.2666C6.73027 15.2666 8.05049 15.8557 9.00384 16.8116C9.95719 17.7649 10.5488 19.0852 10.5488 20.5397V34.6565C10.5488 35.739 10.7116 36.7828 11.0139 37.7646C12.037 41.0922 14.6619 43.7172 17.9896 44.7429C18.9739 45.0451 20.0151 45.2053 21.0977 45.2053C22.1802 45.2053 23.2214 45.0451 24.2031 44.7429C27.5308 43.7172 30.1583 41.0922 31.1814 37.7646C31.4837 36.7828 31.6465 35.739 31.6465 34.6565V34.0623C31.631 33.9073 31.6232 33.7497 31.6232 33.5895V25.1773C31.6232 22.2604 33.9872 19.899 36.9015 19.899C38.3613 19.899 39.6789 20.4906 40.6348 21.444C41.5908 22.3999 42.1798 23.7201 42.1798 25.1773V32.122C42.1902 32.2434 42.1953 32.37 42.1953 32.494Z" fill="white"/>
</g>
<path d="M36.9012 30.3678C39.8149 30.3678 42.1769 28.0058 42.1769 25.0921C42.1769 22.1784 39.8149 19.8164 36.9012 19.8164C33.9875 19.8164 31.6255 22.1784 31.6255 25.0921C31.6255 28.0058 33.9875 30.3678 36.9012 30.3678Z" fill="#262626"/>
<g style="mix-blend-mode:hard-light">
<path d="M5.53108 12.5329C8.44477 12.5329 10.8068 10.1708 10.8068 7.25715C10.8068 4.34346 8.44477 1.98145 5.53108 1.98145C2.61739 1.98145 0.255371 4.34346 0.255371 7.25715C0.255371 10.1708 2.61739 12.5329 5.53108 12.5329Z" fill="white"/>
</g>
<path d="M117.11 29.4346C116.52 29.4346 116.02 29.6387 115.612 30.047C115.204 30.4552 115 30.9709 115 31.5887V49.6679C115 50.2884 115.196 50.8014 115.591 51.2096C115.985 51.6179 116.493 51.822 117.11 51.822C117.728 51.822 118.236 51.6179 118.63 51.2096C119.025 50.8014 119.221 50.2884 119.221 49.6679V31.5887C119.221 30.9709 119.025 30.4552 118.63 30.047C118.236 29.6387 117.728 29.4346 117.11 29.4346Z" fill="white"/>
<path d="M117.11 27.4167C118.276 27.4167 119.221 26.4715 119.221 25.3055C119.221 24.1395 118.276 23.1943 117.11 23.1943C115.945 23.1943 115 24.1395 115 25.3055C115 26.4715 115.945 27.4167 117.11 27.4167Z" fill="white"/>
<path d="M136.365 29.0962C138.363 29.0962 139.912 29.5125 141.01 30.3425C142.109 31.1724 142.874 32.2844 143.311 33.6784C143.746 35.0725 143.967 36.6303 143.967 38.3466V49.668C143.967 50.2884 143.763 50.8014 143.354 51.2097C142.946 51.618 142.447 51.8221 141.856 51.8221C141.265 51.8221 140.723 51.618 140.315 51.2097C139.907 50.8014 139.703 50.2884 139.703 49.668V38.3896C139.703 37.377 139.56 36.4665 139.281 35.666C138.999 34.8629 138.521 34.2237 137.845 33.7429C137.168 33.2648 136.212 33.0257 134.972 33.0257C133.817 33.0257 132.802 33.2648 131.932 33.7429C131.059 34.221 130.375 34.8629 129.883 35.666C129.389 36.4691 129.145 37.377 129.145 38.3896V49.668C129.145 50.2884 128.941 50.8014 128.533 51.2097C128.125 51.618 127.625 51.8221 127.035 51.8221C126.444 51.8221 125.901 51.618 125.493 51.2097C125.085 50.8014 124.881 50.2884 124.881 49.668V31.7553C124.881 31.1375 125.085 30.6218 125.493 30.2136C125.901 29.8053 126.414 29.6012 127.035 29.6012C127.655 29.6012 128.125 29.8053 128.533 30.2136C128.941 30.6218 129.145 31.1375 129.145 31.7553V34.1216L128.385 34.5433C128.581 33.9229 128.928 33.297 129.419 32.6631C129.91 32.0293 130.509 31.4383 131.213 30.8877C131.916 30.3398 132.705 29.902 133.578 29.577C134.451 29.2547 135.38 29.0908 136.365 29.0908V29.0962Z" fill="white"/>
<path d="M148.529 48.3596C148.276 47.9648 148.164 47.5082 148.19 46.9871C148.217 46.466 148.513 46.0229 149.076 45.6576C149.471 45.4051 149.885 45.2977 150.322 45.3406C150.757 45.3836 151.174 45.6012 151.568 45.996C152.355 46.8689 153.236 47.5592 154.208 48.0669C155.18 48.5745 156.353 48.827 157.733 48.827C158.297 48.8001 158.874 48.7061 159.465 48.553C160.056 48.3999 160.563 48.1179 160.985 47.707C161.406 47.2987 161.618 46.6997 161.618 45.9127C161.618 45.209 161.393 44.653 160.942 44.2448C160.491 43.8365 159.9 43.4927 159.167 43.2107C158.434 42.9286 157.631 42.6762 156.761 42.4505C155.859 42.1981 154.959 41.916 154.057 41.6045C153.155 41.2956 152.333 40.8927 151.587 40.4011C150.841 39.9096 150.242 39.2677 149.793 38.478C149.342 37.691 149.117 36.7187 149.117 35.5637C149.117 34.2396 149.482 33.1007 150.215 32.1418C150.945 31.1856 151.917 30.4389 153.128 29.9017C154.339 29.3672 155.633 29.0986 157.014 29.0986C157.859 29.0986 158.729 29.2034 159.632 29.4156C160.534 29.6278 161.406 29.9581 162.249 30.4094C163.095 30.8606 163.826 31.4515 164.446 32.1848C164.728 32.5501 164.889 32.9879 164.932 33.4955C164.975 34.0032 164.741 34.4679 164.234 34.8896C163.895 35.1716 163.487 35.2898 163.009 35.2495C162.531 35.2065 162.137 35.0454 161.828 34.7633C161.294 34.0865 160.604 33.5681 159.758 33.2001C158.912 32.8348 157.956 32.6522 156.885 32.6522C156.35 32.6522 155.795 32.722 155.217 32.8643C154.64 33.0067 154.154 33.2726 153.759 33.6674C153.365 34.0623 153.169 34.6398 153.169 35.3999C153.169 36.1036 153.402 36.6677 153.867 37.0894C154.331 37.5111 154.943 37.8656 155.703 38.1449C156.463 38.427 157.293 38.6794 158.195 38.9051C159.068 39.1307 159.932 39.3993 160.791 39.7082C161.651 40.0171 162.424 40.42 163.114 40.9115C163.804 41.4057 164.365 42.0369 164.803 42.8131C165.238 43.5894 165.458 44.5671 165.458 45.7489C165.458 47.1295 165.058 48.3059 164.255 49.2756C163.452 50.2452 162.44 50.9865 161.216 51.4942C159.991 52.0018 158.702 52.2543 157.352 52.2543C155.746 52.2543 154.149 51.9642 152.559 51.3894C150.969 50.8119 149.624 49.8047 148.526 48.3677L148.529 48.3596Z" fill="white"/>
<path d="M169.727 29.859H179.651C180.215 29.859 180.685 30.0497 181.066 30.4284C181.448 30.8098 181.636 31.2799 181.636 31.8439C181.636 32.408 181.445 32.8726 181.066 33.2379C180.685 33.6032 180.215 33.7859 179.651 33.7859H169.727C169.163 33.7859 168.693 33.5952 168.312 33.2164C167.931 32.8377 167.743 32.365 167.743 31.8009C167.743 31.2369 167.934 30.7722 168.312 30.4069C168.693 30.0416 169.163 29.859 169.727 29.859ZM174.16 24.3662C174.781 24.3662 175.285 24.5703 175.68 24.9786C176.075 25.3869 176.271 25.9026 176.271 26.5204V46.1225C176.271 46.6301 176.354 47.0384 176.523 47.3473C176.692 47.6562 176.923 47.8684 177.221 47.9812C177.517 48.094 177.82 48.1504 178.129 48.1504C178.438 48.1504 178.714 48.094 178.953 47.9812C179.192 47.8684 179.482 47.812 179.818 47.812C180.153 47.812 180.465 47.9677 180.747 48.2766C181.029 48.5882 181.168 49.0099 181.168 49.5444C181.168 50.2213 180.803 50.7692 180.07 51.1909C179.337 51.6126 178.55 51.8248 177.705 51.8248C177.227 51.8248 176.663 51.7818 176.016 51.6985C175.369 51.6153 174.74 51.4031 174.136 51.0647C173.529 50.7262 173.024 50.1837 172.616 49.437C172.208 48.6903 172.004 47.6427 172.004 46.289V26.5204C172.004 25.8999 172.216 25.3869 172.638 24.9786C173.059 24.5703 173.567 24.3662 174.158 24.3662H174.16Z" fill="white"/>
<path d="M204.523 29.2649C205.141 29.2649 205.648 29.4691 206.043 29.8773C206.438 30.2856 206.634 30.8013 206.634 31.4191V49.6675C206.634 50.2879 206.438 50.8009 206.043 51.2092C205.648 51.6175 205.141 51.8216 204.523 51.8216C203.906 51.8216 203.398 51.6175 203.003 51.2092C202.609 50.8009 202.413 50.2879 202.413 49.6675V46.627L203.299 46.7962C203.299 47.2743 203.095 47.8303 202.687 48.4642C202.279 49.098 201.723 49.697 201.019 50.2584C200.316 50.8224 199.483 51.2925 198.527 51.6739C197.569 52.0553 196.543 52.2433 195.445 52.2433C193.504 52.2433 191.756 51.7437 190.209 50.7445C188.66 49.7454 187.435 48.3728 186.536 46.627C185.634 44.8811 185.185 42.8962 185.185 40.6695C185.185 38.4428 185.636 36.3827 186.536 34.6503C187.435 32.9178 188.654 31.5587 190.188 30.573C191.721 29.5872 193.418 29.0957 195.276 29.0957C196.487 29.0957 197.604 29.2918 198.632 29.6866C199.661 30.0814 200.555 30.5891 201.315 31.2069C202.074 31.8273 202.665 32.4827 203.089 33.1703C203.511 33.8606 203.723 34.516 203.723 35.1337L202.413 35.26V31.4164C202.413 30.8255 202.609 30.3178 203.003 29.8961C203.398 29.4744 203.903 29.2622 204.523 29.2622V29.2649ZM195.91 48.3594C197.233 48.3594 198.401 48.021 199.414 47.3468C200.426 46.6699 201.215 45.7486 201.779 44.5803C202.343 43.4119 202.625 42.1092 202.625 40.6722C202.625 39.2352 202.343 37.9325 201.779 36.7641C201.215 35.5957 200.428 34.6798 199.414 34.0191C198.399 33.3583 197.231 33.0253 195.91 33.0253C194.588 33.0253 193.466 33.3556 192.467 34.0191C191.468 34.6798 190.679 35.5904 190.102 36.7426C189.524 37.8976 189.237 39.2083 189.237 40.6722C189.237 42.136 189.524 43.4119 190.102 44.5803C190.679 45.7486 191.466 46.6726 192.467 47.3468C193.466 48.0237 194.613 48.3594 195.91 48.3594Z" fill="white"/>
<path d="M223.738 29.9848C224.301 29.9848 224.766 30.1675 225.131 30.5328C225.496 30.8981 225.679 31.3627 225.679 31.9268C225.679 32.4908 225.496 32.9555 225.131 33.3208C224.766 33.6861 224.301 33.8714 223.738 33.8714H212.799C212.264 33.8714 211.805 33.6888 211.427 33.3208C211.045 32.9555 210.857 32.4908 210.857 31.9268C210.857 31.3627 211.048 30.8981 211.427 30.5328C211.808 30.1675 212.264 29.9848 212.799 29.9848H223.738ZM222.892 20.6055C223.426 20.6055 223.977 20.6753 224.538 20.8177C225.102 20.96 225.572 21.1991 225.953 21.5348C226.334 21.8706 226.522 22.3111 226.522 22.8456C226.522 23.4365 226.353 23.9092 226.015 24.2611C225.676 24.6129 225.282 24.7902 224.833 24.7902C224.551 24.7902 224.173 24.7204 223.692 24.578C223.214 24.4383 222.733 24.3658 222.255 24.3658C221.608 24.3658 221.087 24.5135 220.693 24.809C220.298 25.1044 220.016 25.4697 219.847 25.9075C219.678 26.3454 219.595 26.7724 219.595 27.1968V49.6702C219.595 50.2907 219.39 50.8037 218.982 51.212C218.574 51.6202 218.075 51.8244 217.484 51.8244C216.893 51.8244 216.359 51.6202 215.964 51.212C215.57 50.8037 215.374 50.2907 215.374 49.6702V27.2398C215.374 25.2952 216.013 23.7051 217.296 22.4668C218.577 21.2286 220.443 20.6082 222.892 20.6082V20.6055ZM241.094 29.9848C241.658 29.9848 242.122 30.1675 242.488 30.5328C242.853 30.8981 243.035 31.3627 243.035 31.9268C243.035 32.4908 242.853 32.9555 242.488 33.3208C242.122 33.6861 241.658 33.8714 241.094 33.8714H230.155C229.621 33.8714 229.161 33.6888 228.783 33.3208C228.402 32.9555 228.214 32.4908 228.214 31.9268C228.214 31.3627 228.404 30.8981 228.783 30.5328C229.164 30.1675 229.621 29.9848 230.155 29.9848H241.094ZM240.248 20.6055C240.783 20.6055 241.333 20.6753 241.894 20.8177C242.458 20.96 242.928 21.1991 243.309 21.5348C243.69 21.8706 243.878 22.3111 243.878 22.8456C243.878 23.4365 243.709 23.9092 243.371 24.2611C243.033 24.6129 242.638 24.7902 242.189 24.7902C241.908 24.7902 241.529 24.7204 241.048 24.578C240.57 24.4383 240.09 24.3658 239.612 24.3658C238.965 24.3658 238.444 24.5135 238.049 24.809C237.654 25.1044 237.372 25.4697 237.203 25.9075C237.034 26.3454 236.951 26.7724 236.951 27.1968V49.6702C236.951 50.2907 236.747 50.8037 236.339 51.212C235.931 51.6202 235.431 51.8244 234.84 51.8244C234.25 51.8244 233.715 51.6202 233.321 51.212C232.926 50.8037 232.73 50.2907 232.73 49.6702V27.2398C232.73 25.2952 233.369 23.7051 234.652 22.4668C235.933 21.2286 237.799 20.6082 240.248 20.6082V20.6055Z" fill="white"/>
<defs>
<linearGradient id="paint0_linear_1056_7541" x1="94.3625" y1="21.6738" x2="63.2353" y2="49.8299" gradientUnits="userSpaceOnUse">
<stop stop-color="white"/>
<stop offset="1" stop-color="#919191"/>
</linearGradient>
<linearGradient id="paint1_linear_1056_7541" x1="72.9553" y1="20.4629" x2="32.5556" y2="33.8796" gradientUnits="userSpaceOnUse">
<stop stop-color="white"/>
<stop offset="0.43" stop-color="#FDFDFD"/>
<stop offset="0.59" stop-color="#F6F6F6"/>
<stop offset="0.71" stop-color="#EAEAEA"/>
<stop offset="0.8" stop-color="#D9D9D9"/>
<stop offset="0.88" stop-color="#C3C3C3"/>
<stop offset="0.95" stop-color="#A8A8A8"/>
<stop offset="0.99" stop-color="#989898"/>
</linearGradient>
</defs>
</svg>
