<svg width="230" height="97" viewBox="0 0 230 97" fill="none" xmlns="http://www.w3.org/2000/svg">
<path d="M126.82 51.1594V77.6985C126.82 80.6286 124.444 83.0048 121.511 83.0048C118.578 83.0048 116.205 80.6286 116.205 77.6985V51.1594C116.205 50.0727 116.041 49.0224 115.737 48.0344C114.705 44.6859 112.063 42.0418 108.715 41.0123C107.727 40.7081 106.676 40.5443 105.59 40.5443C104.503 40.5443 103.452 40.7081 102.465 41.0123C99.1159 42.0418 96.4719 44.6859 95.4423 48.0344C95.3722 48.2632 95.3098 48.4972 95.2526 48.7338L94.7976 50.3587C93.9994 52.2826 92.1042 53.6371 89.8917 53.6371C86.9617 53.6371 84.5854 51.2608 84.5854 48.3282C84.5854 47.7459 84.679 47.1843 84.8532 46.6591C84.848 46.6695 84.8428 46.6799 84.8376 46.6929C84.8324 46.7033 84.8272 46.7163 84.822 46.7267C85.2172 44.8652 85.8568 43.0922 86.7069 41.4465C86.8629 41.1423 87.0293 40.8407 87.1983 40.5443C87.2893 40.3857 87.3829 40.2297 87.4791 40.0737C89.234 37.2139 91.644 34.8039 94.5038 33.049C94.6598 32.9528 94.8158 32.8592 94.9744 32.7682C95.2708 32.5966 95.5697 32.4328 95.8765 32.2768C97.7796 31.2941 99.8517 30.5922 102.036 30.2256C103.192 30.0306 104.378 29.9292 105.59 29.9292C106.801 29.9292 107.987 30.0306 109.143 30.2256C111.327 30.5948 113.399 31.2967 115.302 32.2768C115.607 32.4328 115.908 32.5966 116.205 32.7682C116.363 32.8592 116.519 32.9528 116.675 33.049C119.535 34.8013 121.945 37.2139 123.7 40.0737C123.796 40.2297 123.89 40.3857 123.981 40.5443C124.152 40.8407 124.316 41.1397 124.475 41.4439C125.455 43.3469 126.157 45.419 126.526 47.6029C126.721 48.7598 126.822 49.9453 126.822 51.1568L126.82 51.1594Z" fill="url(#paint0_linear_679_6719)"/>
<path d="M95.037 48.8818V64.8058C95.037 66.0173 94.9356 67.2055 94.7406 68.3598C94.3714 70.5436 93.6721 72.6157 92.6893 74.5188C92.5333 74.823 92.3695 75.1245 92.198 75.4209C92.107 75.5795 92.0134 75.7355 91.9172 75.8915C90.1623 78.7513 87.7522 81.1614 84.8924 82.9163C84.7364 83.0124 84.5804 83.106 84.4219 83.197C84.1255 83.3686 83.8265 83.5324 83.5223 83.6884C81.6192 84.6711 79.5472 85.3731 77.3633 85.7397C76.2064 85.9347 75.0209 86.036 73.8093 86.036C72.5978 86.036 71.4123 85.9347 70.2554 85.7397C68.0715 85.3705 65.9994 84.6685 64.0964 83.6884C63.7922 83.5324 63.4906 83.3686 63.1942 83.197C63.0356 83.106 62.8796 83.0124 62.7236 82.9163C60.8778 81.7853 59.2191 80.3788 57.8048 78.7565C57.0274 77.8648 56.3229 76.908 55.6989 75.8941C55.6027 75.7381 55.5091 75.5821 55.4181 75.4235C55.2465 75.1271 55.0827 74.8282 54.9268 74.5214C53.944 72.6183 53.2421 70.5462 52.8755 68.3624C52.6805 67.2055 52.5791 66.0199 52.5791 64.8084V38.2693C52.5791 35.3367 54.9553 32.9604 57.888 32.9604C60.8206 32.9604 63.0018 35.1469 63.1838 37.9157C63.1916 38.0327 63.1942 38.1497 63.1942 38.2693V64.8084C63.1942 65.8951 63.358 66.9455 63.6622 67.9334C64.6917 71.282 67.3358 73.926 70.6843 74.9556C71.6723 75.2597 72.7226 75.4235 73.8093 75.4235C74.8961 75.4235 75.9464 75.2597 76.9343 74.9556C80.2829 73.926 82.927 71.282 83.9565 67.9334C84.2607 66.9455 84.4245 65.8951 84.4245 64.8084V50.5535C84.4531 49.5552 84.5492 48.5725 84.713 47.6105C84.7624 47.3141 84.8196 47.0204 84.8794 46.7292C84.8846 46.7188 84.8898 46.7058 84.895 46.6954C85.7244 44.8651 87.5599 43.5886 89.6969 43.5756H89.7645C92.6789 43.5938 95.037 45.9622 95.037 48.8818Z" fill="url(#paint1_linear_679_6719)"/>
<path d="M84.4219 49.1836V49.7972H84.4141C84.4141 49.5918 84.4167 49.389 84.4219 49.1836Z" fill="white"/>
<g style="mix-blend-mode:hard-light">
<path d="M63.2149 62.6272V64.8033C63.2149 65.8276 63.1421 66.8337 63.0017 67.8165C62.9757 67.9985 62.9497 68.1778 62.9185 68.3572C62.5493 70.5437 61.8474 72.6158 60.8672 74.5188C60.7086 74.823 60.5448 75.1246 60.3733 75.4184C60.2823 75.577 60.1887 75.7356 60.0951 75.8889C58.3402 78.7488 55.9301 81.1614 53.0703 82.9137C52.9143 83.0099 52.7583 83.1035 52.5998 83.1945C52.3034 83.3661 52.0044 83.5299 51.6976 83.6858C50.7461 84.1772 49.7529 84.5984 48.7234 84.9416C47.6939 85.2873 46.6305 85.5525 45.5386 85.7371C44.3817 85.9321 43.1962 86.0335 41.9846 86.0335C40.7731 86.0335 39.585 85.9321 38.4307 85.7371H38.4281C36.2442 85.3705 34.1721 84.6686 32.2691 83.6858C31.9649 83.5299 31.6659 83.3661 31.3695 83.1945C31.2109 83.1035 31.0549 83.0099 30.8989 82.9137C28.0391 81.1614 25.6291 78.7488 23.8742 75.8889C23.778 75.7356 23.6844 75.577 23.5934 75.4184C23.4218 75.1246 23.258 74.823 23.102 74.5188C22.6107 73.5673 22.1895 72.5742 21.8463 71.5446C21.5005 70.5151 21.2328 69.4518 21.0508 68.3598C20.8558 67.2029 20.7544 66.0148 20.7544 64.8033V50.5978C20.7544 47.6677 23.1306 45.2915 26.0607 45.2915C27.527 45.2915 28.8555 45.8843 29.8148 46.8462C30.7742 47.8055 31.3695 49.1341 31.3695 50.5978V64.8033C31.3695 65.8926 31.5333 66.9429 31.8375 67.9309C32.867 71.2794 35.5085 73.9209 38.857 74.953C39.8476 75.2572 40.8953 75.4184 41.9846 75.4184C43.074 75.4184 44.1217 75.2572 45.1096 74.953C48.4582 73.9209 51.1023 71.2794 52.1318 67.9309C52.436 66.9429 52.5998 65.8926 52.5998 64.8033V64.2053C52.5842 64.0493 52.5764 63.8907 52.5764 63.7295V55.2645C52.5764 52.3293 54.9552 49.953 57.8878 49.953C59.3567 49.953 60.6826 50.5484 61.6446 51.5077C62.6065 52.4696 63.1993 53.7982 63.1993 55.2645V62.2528C63.2097 62.375 63.2149 62.5024 63.2149 62.6272Z" fill="white"/>
</g>
<path d="M121.513 96.6514C124.445 96.6514 126.822 94.2745 126.822 91.3425C126.822 88.4105 124.445 86.0337 121.513 86.0337C118.581 86.0337 116.205 88.4105 116.205 91.3425C116.205 94.2745 118.581 96.6514 121.513 96.6514Z" fill="white"/>
<path d="M57.888 60.4903C60.82 60.4903 63.1968 58.1134 63.1968 55.1814C63.1968 52.2494 60.82 49.8726 57.888 49.8726C54.956 49.8726 52.5791 52.2494 52.5791 55.1814C52.5791 58.1134 54.956 60.4903 57.888 60.4903Z" fill="#262626"/>
<g style="mix-blend-mode:hard-light">
<path d="M26.3206 42.5435C29.2526 42.5435 31.6294 40.1666 31.6294 37.2346C31.6294 34.3026 29.2526 31.9258 26.3206 31.9258C23.3886 31.9258 21.0117 34.3026 21.0117 37.2346C21.0117 40.1666 23.3886 42.5435 26.3206 42.5435Z" fill="white"/>
</g>
<path d="M141.228 60.2559V82.8926H137.812V60.2559H141.228Z" fill="white"/>
<path d="M144.964 68.612H148.276V69.1917C149.431 68.0478 150.73 68.2168 152.176 68.2168C153.837 68.2168 155.132 68.7394 156.06 69.7845C156.861 70.6736 157.261 72.1243 157.261 74.1392V82.8903H153.949V74.914C153.949 73.5075 153.754 72.5351 153.361 71.997C152.979 71.4484 152.285 71.1754 151.279 71.1754C150.184 71.1754 149.379 71.5316 149.116 72.3479C148.89 73.0551 148.768 74.2224 148.768 76.0007V82.8903H144.961V68.612H144.964Z" fill="white"/>
<path d="M171.225 71.0451L167.814 72.4958C167.276 71.6171 166.61 71.1777 165.815 71.1777C165.435 71.1777 165.113 71.2791 164.842 71.4793C164.572 71.6795 164.439 71.9368 164.439 72.2488C164.439 72.7974 165.235 73.3382 166.823 73.8763C169.013 74.6303 170.484 75.3218 171.243 75.9588C172.002 76.5931 172.379 77.4485 172.379 78.5248C172.379 79.9027 171.742 81.0571 170.471 81.9852C169.236 82.8639 167.744 83.3059 165.997 83.3059C163.002 83.3059 160.88 82.1386 159.632 79.8013L163.152 78.4962C163.641 79.18 164.013 79.6142 164.27 79.8013C164.772 80.1731 165.37 80.3577 166.067 80.3577C167.46 80.3577 168.157 79.8507 168.157 78.8342C168.157 78.2466 167.619 77.7007 166.543 77.1911C166.127 77.0247 165.711 76.8635 165.295 76.7075C164.879 76.5515 164.458 76.3904 164.029 76.224C162.83 75.7534 161.988 75.2854 161.499 74.8175C160.875 74.2221 160.563 73.4551 160.563 72.5166C160.563 71.2765 161.096 70.2495 162.159 69.4384C163.249 68.6273 164.567 68.2217 166.121 68.2217C168.407 68.2217 170.107 69.1654 171.22 71.0503L171.225 71.0451Z" fill="white"/>
<path d="M198.024 68.612H201.336V82.8903H198.024V81.8893C196.665 83.1606 195.203 83.301 193.641 83.301C191.668 83.301 190.035 82.5887 188.745 81.1614C187.464 79.7055 186.824 77.8882 186.824 75.7069C186.824 73.5257 187.464 71.7838 188.745 70.3565C190.025 68.9291 191.629 68.2168 193.555 68.2168C195.216 68.2168 196.678 68.5314 198.027 69.5297V68.612H198.024ZM190.196 75.7069C190.196 77.0744 190.563 78.1898 191.296 79.0503C192.047 79.9212 192.996 80.3554 194.14 80.3554C195.362 80.3554 196.35 79.9342 197.101 79.0945C197.853 78.2236 198.23 77.1212 198.23 75.7823C198.23 74.4434 197.853 73.3385 197.101 72.4701C196.347 71.62 195.372 71.1936 194.169 71.1936C193.035 71.1936 192.086 71.6252 191.325 72.4831C190.571 73.3541 190.196 74.4278 190.196 75.7095V75.7069Z" fill="white"/>
<path d="M181.071 68.6119V63.3784H179.22V82.8928H181.071V71.6927H183.634V68.6119H181.071Z" fill="white"/>
<path d="M177.563 68.6119V63.3784H179.415V82.8928H177.563V71.6927H175V68.6119H177.563Z" fill="white"/>
<path d="M184.903 68.6118H173.924V71.6822H184.903V68.6118Z" fill="white"/>
<path d="M213.36 61.873C213.329 61.2777 212.931 60.9215 212.464 60.9085C211.876 60.8929 211.481 61.1191 211.275 61.5377C211.07 61.9484 210.969 62.7388 210.969 63.9113V68.617H214.559V71.6952H210.969V82.8953H207.656V71.6952H206.484V68.617H207.656V63.1054C207.656 61.3063 207.968 60.0375 208.595 59.294C209.456 58.2593 210.706 57.7393 212.349 57.7393C212.937 57.7393 216.054 57.6847 216.301 61.8158" fill="white"/>
<path d="M214.517 68.6143H204.032V71.6795H214.517V68.6143Z" fill="white"/>
<path d="M226.121 61.873C226.09 61.2777 225.692 60.9215 225.224 60.9085C224.636 60.8929 224.241 61.1191 224.036 61.5377C223.83 61.9484 223.729 62.7388 223.729 63.9113V68.617H227.319V71.6952H223.729V82.8953H220.417V71.6952H219.244V68.617H220.417V63.1054C220.417 61.3063 220.729 60.0375 221.355 59.294C222.216 58.2593 223.466 57.7393 225.109 57.7393C225.697 57.7393 228.814 57.6847 229.061 61.8158" fill="white"/>
<path d="M227.278 68.6143H216.792V71.6795H227.278V68.6143Z" fill="white"/>
<defs>
<linearGradient id="paint0_linear_679_6719" x1="115.711" y1="51.7418" x2="84.3879" y2="80.0748" gradientUnits="userSpaceOnUse">
<stop stop-color="white"/>
<stop offset="1" stop-color="#919191"/>
</linearGradient>
<linearGradient id="paint1_linear_679_6719" x1="94.166" y1="50.5223" x2="53.515" y2="64.0207" gradientUnits="userSpaceOnUse">
<stop stop-color="white"/>
<stop offset="0.43" stop-color="#FDFDFD"/>
<stop offset="0.59" stop-color="#F6F6F6"/>
<stop offset="0.71" stop-color="#EAEAEA"/>
<stop offset="0.8" stop-color="#D9D9D9"/>
<stop offset="0.88" stop-color="#C3C3C3"/>
<stop offset="0.95" stop-color="#A8A8A8"/>
<stop offset="0.99" stop-color="#989898"/>
</linearGradient>
</defs>
</svg>
