<?xml version="1.0" encoding="UTF-8"?>
<svg id="Layer_2" data-name="Layer 2" xmlns="http://www.w3.org/2000/svg" viewBox="0 0 801.23 256.64">
  <defs>
    <style>
      .cls-1 {
        fill: none;
      }

      .cls-2 {
        fill: #f64a80;
      }

      .cls-3 {
        fill: #fff;
      }

      .cls-4 {
        fill: #686868;
      }

      .cls-5 {
        fill: #d81b60;
      }

      .cls-6 {
        fill: #231815;
      }

      .cls-7 {
        fill: #40b2db;
      }

      .cls-8 {
        fill: #964163;
      }

      .cls-9 {
        fill: #878787;
      }

      .cls-10 {
        fill: #4f4f4f;
      }
    </style>
  </defs>
  <g id="_圖層_6" data-name=" 圖層 6">
    <g id="tranpanency_-_light_long" data-name="tranpanency - light long">
      <path d="M463.39,116.12v87.07h-13.14V116.12h13.14Z"/>
      <path d="M477.76,148.26h12.74v2.23c4.44-4.4,9.44-3.75,15-3.75,6.39,0,11.37,2.01,14.94,6.03,3.08,3.42,4.62,9,4.62,16.75v33.66h-12.74v-30.68c0-5.41-.75-9.15-2.26-11.22-1.47-2.11-4.14-3.16-8.01-3.16-4.21,0-7.31,1.37-8.32,4.51-.87,2.72-1.34,7.21-1.34,14.05v26.5h-14.64v-54.92h.01Z"/>
      <path d="M578.78,157.62l-13.12,5.58c-2.07-3.38-4.63-5.07-7.69-5.07-1.46,0-2.7,.39-3.74,1.16s-1.55,1.76-1.55,2.96c0,2.11,3.06,4.19,9.17,6.26,8.42,2.9,14.08,5.56,17,8.01,2.92,2.44,4.37,5.73,4.37,9.87,0,5.3-2.45,9.74-7.34,13.31-4.75,3.38-10.49,5.08-17.21,5.08-11.52,0-19.68-4.49-24.48-13.48l13.54-5.02c1.88,2.63,3.31,4.3,4.3,5.02,1.93,1.43,4.23,2.14,6.91,2.14,5.36,0,8.04-1.95,8.04-5.86,0-2.26-2.07-4.36-6.21-6.32-1.6-.64-3.2-1.26-4.8-1.86-1.6-.6-3.22-1.22-4.87-1.86-4.61-1.81-7.85-3.61-9.73-5.41-2.4-2.29-3.6-5.24-3.6-8.85,0-4.77,2.05-8.72,6.14-11.84,4.19-3.12,9.26-4.68,15.24-4.68,8.79,0,15.33,3.63,19.61,10.88l.02-.02Z"/>
      <path d="M681.85,148.26h12.74v54.92h-12.74v-3.85c-5.23,4.89-10.85,5.43-16.86,5.43-7.59,0-13.87-2.74-18.83-8.23-4.93-5.6-7.39-12.59-7.39-20.98s2.46-15.09,7.39-20.58c4.92-5.49,11.09-8.23,18.5-8.23,6.39,0,12.01,1.21,17.2,5.05v-3.53h-.01Zm-30.11,27.29c0,5.26,1.41,9.55,4.23,12.86,2.89,3.35,6.54,5.02,10.94,5.02,4.7,0,8.5-1.62,11.39-4.85,2.89-3.35,4.34-7.59,4.34-12.74s-1.45-9.4-4.34-12.74c-2.9-3.27-6.65-4.91-11.28-4.91-4.36,0-8.01,1.66-10.94,4.96-2.9,3.35-4.34,7.48-4.34,12.41h0Z"/>
      <g>
        <path d="M616.64,148.26v-20.13h-7.12v75.06h7.12v-43.08h9.86v-11.85h-9.86Z"/>
        <path d="M603.15,148.26v-20.13h7.12v75.06h-7.12v-43.08h-9.86v-11.85h9.86Z"/>
        <rect x="589.15" y="148.26" width="42.23" height="11.81"/>
      </g>
      <g>
        <path d="M740.84,122.33c-.12-2.29-1.65-3.66-3.45-3.71-2.26-.06-3.78,.81-4.57,2.42-.79,1.58-1.18,4.62-1.18,9.13v18.1h13.81v11.84h-13.81v43.08h-12.74v-43.08h-4.51v-11.84h4.51v-21.2c0-6.92,1.2-11.8,3.61-14.66,3.31-3.98,8.12-5.98,14.44-5.98,2.26,0,14.25-.21,15.2,15.68"/>
        <rect x="704.96" y="148.27" width="40.33" height="11.79"/>
      </g>
      <g>
        <path d="M789.92,122.33c-.12-2.29-1.65-3.66-3.45-3.71-2.26-.06-3.78,.81-4.57,2.42-.79,1.58-1.18,4.62-1.18,9.13v18.1h13.81v11.84h-13.81v43.08h-12.74v-43.08h-4.51v-11.84h4.51v-21.2c0-6.92,1.2-11.8,3.61-14.66,3.31-3.98,8.12-5.98,14.44-5.98,2.26,0,14.25-.21,15.2,15.68"/>
        <rect x="754.04" y="148.27" width="40.33" height="11.79"/>
      </g>
      <g id="light_mood_square_" data-name="light mood square ">
        <path class="cls-9" d="M407.97,81.66v102.08c0,11.27-9.14,20.41-20.42,20.41s-20.41-9.14-20.41-20.41V81.66c0-4.18-.63-8.22-1.8-12.02-3.97-12.88-14.13-23.05-27.01-27.01h0c-3.8-1.17-7.84-1.8-12.02-1.8s-8.22,.63-12.02,1.8c-12.88,3.96-23.05,14.13-27.01,27.01-.27,.88-.51,1.78-.73,2.69l-1.75,6.25c-3.07,7.4-10.36,12.61-18.87,12.61-11.27,0-20.41-9.14-20.41-20.42,0-2.24,.36-4.4,1.03-6.42-.02,.04-.04,.08-.06,.13-.02,.04-.04,.09-.06,.13,1.52-7.16,3.98-13.98,7.25-20.31,.6-1.17,1.24-2.33,1.89-3.47,.35-.61,.71-1.21,1.08-1.81,6.75-11,16.02-20.27,27.02-27.02,.6-.37,1.2-.73,1.81-1.08,1.14-.66,2.29-1.29,3.47-1.89,7.32-3.78,15.29-6.48,23.69-7.89,4.45-.75,9.01-1.14,13.67-1.14s9.22,.39,13.67,1.14h0c8.4,1.42,16.37,4.12,23.69,7.89,1.17,.6,2.33,1.23,3.47,1.89,.61,.35,1.21,.71,1.81,1.08,11,6.74,20.27,16.02,27.02,27.02,.37,.6,.73,1.2,1.08,1.81,.66,1.14,1.29,2.29,1.9,3.46h0c3.77,7.32,6.47,15.29,7.89,23.69h0c.75,4.45,1.14,9.01,1.14,13.67h-.01Z"/>
        <path class="cls-7" d="M122.4,130c0,.62,.03,1.23,.09,1.83v2.3c0,.7-.02,1.39-.06,2.08-.02-.69-.03-1.38-.03-2.07v-4.14Z"/>
        <path class="cls-4" d="M157.28,82.99c-3.7-3.69-8.8-5.98-14.45-5.98-11.28,0-20.43,9.14-20.43,20.43V32.06c0-11.28,9.14-20.42,20.41-20.42s19.67,8.42,20.37,19.06c.03,.45,.05,.9,.05,1.36V96.39c-.26-5.22-2.48-9.93-5.95-13.4h0Z"/>
        <path class="cls-10" d="M285.72,72.89v61.25c0,4.66-.39,9.22-1.14,13.67-.71,4.2-1.74,8.29-3.06,12.25-1.33,3.96-2.95,7.78-4.83,11.44-.61,1.18-1.24,2.33-1.9,3.47-.35,.61-.71,1.21-1.07,1.81-6.75,10.99-16.03,20.27-27.02,27.01-.6,.37-1.2,.73-1.81,1.08-1.14,.66-2.29,1.29-3.47,1.9-3.66,1.89-7.48,3.5-11.44,4.83-3.96,1.32-8.05,2.35-12.25,3.06-4.45,.75-9.01,1.14-13.67,1.14s-9.23-.39-13.67-1.14h-.01c-8.4-1.42-16.37-4.12-23.69-7.89-1.17-.61-2.33-1.24-3.46-1.9-.61-.35-1.22-.71-1.81-1.08-6.94-4.25-13.2-9.52-18.57-15.59,3.15-3.55,5.98-7.37,8.47-11.43,.36-.59,.72-1.2,1.07-1.81,.66-1.13,1.29-2.29,1.9-3.46,3.77-7.32,6.47-15.29,7.89-23.69h0c.12-.7,.22-1.39,.32-2.09,.44-3.1,.71-6.26,.79-9.47,.17,3.43,.77,6.75,1.74,9.91,3.96,12.88,14.12,23.05,27,27.01,3.81,1.17,7.84,1.8,12.03,1.8s8.22-.63,12.02-1.8c12.88-3.96,23.05-14.13,27.01-27.01,1.17-3.8,1.8-7.84,1.8-12.02v-54.83c.11-3.84,.48-7.62,1.1-11.32,.2-1.13,.41-2.26,.65-3.38,.02-.04,.04-.09,.06-.13,3.18-7.04,10.25-11.95,18.47-12h.27c11.21,.07,20.28,9.18,20.28,20.41h0Z"/>
        <path class="cls-6" d="M244.89,74.06v2.36h-.03c0-.79,.01-1.57,.03-2.36Z"/>
        <line class="cls-1" x1="369.31" y1="60.72" x2="369.09" y2="61.51"/>
        <line class="cls-1" x1="367.34" y1="67.77" x2="367.21" y2="68.21"/>
        <path class="cls-8" d="M163.29,136.25c-.08,3.21-.35,6.37-.79,9.47-.1,.7-.2,1.39-.32,2.08h0c-1.42,8.41-4.12,16.38-7.89,23.7-.61,1.17-1.24,2.33-1.9,3.46-.35,.61-.71,1.22-1.07,1.81-2.49,4.06-5.32,7.88-8.47,11.43-.12-.13-.24-.27-.36-.41-2.99-3.43-5.7-7.11-8.09-11.01-.37-.6-.73-1.2-1.08-1.81-.66-1.14-1.29-2.29-1.89-3.47-3.78-7.32-6.48-15.29-7.89-23.69-.64-3.79-1.02-7.66-1.11-11.6,.04-.69,.06-1.38,.06-2.08v-2.3c-.06-.6-.09-1.21-.09-1.83v-32.56c0-11.29,9.15-20.43,20.43-20.43,5.65,0,10.75,2.29,14.45,5.98,3.47,3.47,5.69,8.18,5.95,13.4v37.75c0,.71,.02,1.41,.06,2.11h0Z"/>
        <path class="cls-5" d="M142.49,187.79c.12,.14,.24,.28,.36,.41-5.35,6.07-11.61,11.34-18.55,15.59-.6,.37-1.2,.73-1.81,1.08-1.14,.66-2.29,1.29-3.47,1.89-3.66,1.89-7.48,3.51-11.44,4.83-3.96,1.33-8.05,2.35-12.25,3.06-4.45,.75-9.01,1.14-13.67,1.14s-9.23-.39-13.67-1.14h0c-8.4-1.41-16.37-4.11-23.69-7.89-1.17-.6-2.32-1.23-3.46-1.89-.61-.35-1.21-.71-1.81-1.08-11-6.74-20.27-16.02-27.02-27.02-.37-.59-.73-1.2-1.08-1.81-.66-1.13-1.29-2.29-1.89-3.46-1.89-3.66-3.51-7.48-4.83-11.44-1.33-3.96-2.36-8.05-3.06-12.25h0c-.75-4.45-1.14-9.02-1.14-13.68v-54.64c0-11.27,9.14-20.41,20.41-20.41,5.64,0,10.75,2.28,14.44,5.98,3.69,3.69,5.98,8.8,5.98,14.43v54.64c0,4.19,.63,8.23,1.8,12.03,3.96,12.88,14.12,23.04,27,27.01,3.81,1.17,7.84,1.79,12.03,1.79s8.22-.62,12.02-1.79c12.88-3.97,23.05-14.13,27.01-27.01,.98-3.17,1.58-6.5,1.74-9.95,.09,3.94,.47,7.81,1.11,11.6,1.41,8.4,4.11,16.37,7.89,23.69,.6,1.18,1.23,2.33,1.89,3.47,.35,.61,.71,1.21,1.08,1.81,2.39,3.9,5.1,7.58,8.09,11.01h0Z"/>
        <path class="cls-2" d="M163.32,125.76v8.37c0,.71,0,1.42-.03,2.12-.04-.7-.06-1.4-.06-2.11v-37.75c.02,.35,.03,.7,.03,1.05v26.88c.04,.47,.06,.96,.06,1.44Z"/>
        <circle class="cls-9" cx="387.56" cy="236.22" r="20.42"/>
        <circle class="cls-3" cx="142.83" cy="97.12" r="20.42"/>
        <circle class="cls-5" cx="21.41" cy="28.09" r="20.42"/>
      </g>
    </g>
  </g>
</svg>