<svg width="264" height="254" viewBox="0 0 264 254" fill="none" xmlns="http://www.w3.org/2000/svg">
<g clip-path="url(#clip0_1753_4993)">
<path d="M222.181 60.2023H220.794V22.0699C220.794 16.2166 218.475 10.603 214.346 6.46412C210.217 2.32521 204.617 2.8789e-09 198.778 2.8789e-09H118.182C115.291 -4.68078e-05 112.428 0.570761 109.757 1.67983C107.085 2.78891 104.658 4.41452 102.614 6.46387C100.569 8.51322 98.9476 10.9462 97.8411 13.6238C96.7346 16.3014 96.1651 19.1713 96.165 22.0695V231.267C96.165 237.12 98.4846 242.734 102.614 246.873C106.743 251.012 112.343 253.337 118.182 253.337H198.777C204.616 253.337 210.216 251.012 214.345 246.873C218.474 242.734 220.793 237.12 220.793 231.267V87.3457H222.18L222.181 60.2023Z" fill="#3F3D56"/>
<path d="M216.278 20.5914V232.744C216.278 237.182 214.519 241.438 211.389 244.577C208.258 247.715 204.013 249.479 199.586 249.481H117.337C112.908 249.481 108.66 247.718 105.528 244.58C102.395 241.441 100.635 237.184 100.633 232.744V20.5914C100.635 16.1519 102.395 11.8948 105.527 8.75625C108.66 5.61774 112.907 3.8549 117.336 3.85547H127.313C126.823 5.06313 126.637 6.37294 126.77 7.66976C126.904 8.96658 127.353 10.2107 128.078 11.2928C128.803 12.3749 129.783 13.2618 130.93 13.8756C132.078 14.4894 133.358 14.8112 134.658 14.8129H181.55C182.851 14.8112 184.131 14.4894 185.278 13.8756C186.426 13.2618 187.405 12.3749 188.13 11.2928C188.856 10.2107 189.305 8.96658 189.438 7.66976C189.572 6.37294 189.385 5.06313 188.895 3.85547H199.583C204.01 3.85622 208.255 5.61927 211.386 8.757C214.517 11.8947 216.277 16.1503 216.278 20.5882V20.5914Z" fill="white"/>
<path d="M158.441 105.758C177.405 105.758 192.779 90.3473 192.779 71.3371C192.779 52.3268 177.405 36.916 158.441 36.916C139.476 36.916 124.103 52.3268 124.103 71.3371C124.103 90.3473 139.476 105.758 158.441 105.758Z" fill="#D81B60"/>
<path d="M195.891 142.794H122.803C122.444 142.794 122.1 142.651 121.846 142.396C121.592 142.142 121.45 141.797 121.449 141.437V123.264C121.45 122.904 121.592 122.559 121.846 122.305C122.1 122.051 122.444 121.908 122.803 121.907H195.891C196.249 121.908 196.593 122.051 196.847 122.305C197.101 122.559 197.244 122.904 197.244 123.264V141.438C197.244 141.797 197.101 142.142 196.847 142.397C196.593 142.651 196.249 142.794 195.891 142.794V142.794ZM122.803 122.45C122.587 122.45 122.381 122.536 122.229 122.688C122.076 122.841 121.991 123.048 121.99 123.264V141.438C121.991 141.654 122.076 141.861 122.229 142.013C122.381 142.166 122.587 142.252 122.803 142.252H195.891C196.106 142.252 196.312 142.166 196.465 142.013C196.617 141.861 196.703 141.654 196.703 141.438V123.264C196.703 123.048 196.617 122.841 196.465 122.688C196.312 122.536 196.106 122.45 195.891 122.45H122.803Z" fill="#E6E6E6"/>
<path d="M145.406 128.452C145.155 128.452 144.914 128.552 144.736 128.73C144.558 128.908 144.458 129.15 144.458 129.402C144.458 129.654 144.558 129.895 144.736 130.074C144.914 130.252 145.155 130.352 145.406 130.352H190.071C190.322 130.361 190.566 130.271 190.751 130.099C190.935 129.928 191.044 129.691 191.054 129.439C191.063 129.187 190.973 128.942 190.802 128.757C190.631 128.572 190.394 128.463 190.143 128.453C190.129 128.453 190.115 128.452 190.101 128.452L145.406 128.452Z" fill="#E6E6E6"/>
<path d="M145.406 134.15C145.155 134.15 144.914 134.25 144.736 134.429C144.558 134.607 144.458 134.848 144.458 135.1C144.458 135.352 144.558 135.594 144.736 135.772C144.914 135.95 145.155 136.05 145.406 136.05H190.071C190.322 136.06 190.566 135.969 190.751 135.798C190.935 135.626 191.044 135.389 191.054 135.137C191.063 134.885 190.973 134.64 190.802 134.455C190.631 134.27 190.394 134.161 190.143 134.151C190.129 134.151 190.115 134.151 190.101 134.151L145.406 134.15Z" fill="#E6E6E6"/>
<path d="M195.891 173.086H122.803C122.444 173.086 122.1 172.943 121.846 172.688C121.592 172.434 121.45 172.089 121.449 171.729V153.556C121.45 153.196 121.592 152.851 121.846 152.597C122.1 152.343 122.444 152.2 122.803 152.199H195.891C196.249 152.2 196.593 152.343 196.847 152.597C197.101 152.851 197.244 153.196 197.244 153.556V171.73C197.243 172.089 197.101 172.434 196.847 172.688C196.593 172.943 196.249 173.086 195.891 173.086ZM122.803 152.742C122.587 152.742 122.381 152.828 122.229 152.98C122.076 153.133 121.991 153.34 121.99 153.556V171.73C121.991 171.946 122.076 172.153 122.229 172.305C122.381 172.458 122.587 172.544 122.803 172.544H195.891C196.106 172.544 196.312 172.458 196.465 172.305C196.617 172.153 196.703 171.946 196.703 171.73V153.556C196.703 153.34 196.617 153.133 196.465 152.98C196.312 152.828 196.106 152.742 195.891 152.742H122.803Z" fill="#E6E6E6"/>
<path d="M145.406 158.842C145.155 158.842 144.914 158.942 144.736 159.12C144.558 159.299 144.458 159.54 144.458 159.792C144.458 160.044 144.558 160.286 144.736 160.464C144.914 160.642 145.155 160.742 145.406 160.742H190.071C190.318 160.74 190.556 160.642 190.732 160.467C190.908 160.293 191.009 160.056 191.013 159.807C191.017 159.559 190.924 159.319 190.753 159.139C190.583 158.958 190.349 158.852 190.101 158.843H145.406V158.842Z" fill="#E6E6E6"/>
<path d="M145.406 164.542C145.155 164.542 144.914 164.642 144.736 164.82C144.558 164.998 144.458 165.239 144.458 165.491C144.458 165.743 144.558 165.985 144.736 166.163C144.914 166.341 145.155 166.441 145.406 166.441H190.071C190.318 166.44 190.556 166.341 190.732 166.166C190.908 165.992 191.009 165.755 191.013 165.507C191.017 165.258 190.924 165.018 190.753 164.838C190.583 164.658 190.349 164.551 190.101 164.542H145.406V164.542Z" fill="#E6E6E6"/>
<path d="M195.891 203.477H122.803C122.444 203.476 122.1 203.333 121.846 203.079C121.592 202.825 121.45 202.48 121.449 202.12V183.947C121.45 183.587 121.592 183.242 121.846 182.988C122.1 182.733 122.444 182.59 122.803 182.59H195.891C196.249 182.59 196.593 182.733 196.847 182.988C197.101 183.242 197.244 183.587 197.244 183.947V202.12C197.244 202.48 197.101 202.825 196.847 203.079C196.593 203.333 196.249 203.477 195.891 203.477V203.477ZM122.803 183.132C122.587 183.133 122.381 183.218 122.229 183.371C122.076 183.524 121.991 183.731 121.99 183.947V202.12C121.991 202.336 122.076 202.543 122.229 202.696C122.381 202.848 122.587 202.934 122.803 202.935H195.891C196.106 202.934 196.312 202.848 196.465 202.696C196.617 202.543 196.703 202.336 196.703 202.12V183.947C196.703 183.731 196.617 183.524 196.465 183.371C196.312 183.218 196.106 183.133 195.891 183.132H122.803Z" fill="#E6E6E6"/>
<path d="M145.406 189.234C145.155 189.234 144.914 189.334 144.736 189.512C144.558 189.69 144.458 189.932 144.458 190.184C144.458 190.436 144.558 190.677 144.736 190.855C144.914 191.033 145.155 191.133 145.406 191.133H190.071C190.195 191.138 190.319 191.118 190.436 191.075C190.552 191.032 190.659 190.966 190.751 190.881C190.842 190.796 190.916 190.694 190.968 190.581C191.02 190.468 191.049 190.345 191.054 190.221C191.059 190.096 191.039 189.972 190.996 189.855C190.952 189.738 190.887 189.63 190.802 189.539C190.717 189.447 190.616 189.373 190.503 189.321C190.39 189.269 190.267 189.24 190.143 189.235C190.129 189.234 190.115 189.234 190.101 189.234L145.406 189.234Z" fill="#E6E6E6"/>
<path d="M145.406 194.933C145.155 194.933 144.914 195.033 144.736 195.211C144.558 195.389 144.458 195.631 144.458 195.882C144.458 196.134 144.558 196.376 144.736 196.554C144.914 196.732 145.155 196.832 145.406 196.832H190.071C190.195 196.837 190.319 196.817 190.436 196.774C190.552 196.731 190.659 196.665 190.751 196.58C190.842 196.495 190.916 196.393 190.968 196.28C191.02 196.166 191.049 196.044 191.054 195.919C191.059 195.795 191.039 195.67 190.996 195.553C190.952 195.436 190.887 195.329 190.802 195.237C190.717 195.146 190.616 195.072 190.503 195.02C190.39 194.968 190.267 194.938 190.143 194.934C190.129 194.933 190.115 194.933 190.101 194.933H145.406L145.406 194.933Z" fill="#E6E6E6"/>
<path d="M263.311 254H0.689139C0.308297 254 0 253.833 0 253.627C0 253.422 0.308653 253.255 0.689139 253.255H263.311C263.691 253.255 264 253.422 264 253.627C264 253.833 263.692 254 263.311 254Z" fill="#E6E6E6"/>
<path d="M252.189 239.469C251.067 239.864 249.862 239.963 248.691 239.757C247.519 239.55 246.421 239.044 245.501 238.288C243.159 236.318 242.425 233.071 241.827 230.065L240.06 221.173L243.76 223.727C246.421 225.563 249.142 227.459 250.984 230.119C252.827 232.779 253.631 236.411 252.151 239.289" fill="#E6E6E6"/>
<path d="M251.617 250.853C252.083 247.452 252.562 244.007 252.235 240.57C251.945 237.517 251.016 234.535 249.124 232.09C248.12 230.795 246.898 229.685 245.513 228.811C245.153 228.582 244.82 229.156 245.18 229.383C247.575 230.901 249.428 233.142 250.471 235.784C251.623 238.721 251.808 241.923 251.609 245.043C251.489 246.93 251.235 248.805 250.978 250.677C250.958 250.762 250.971 250.851 251.014 250.927C251.057 251.002 251.126 251.059 251.209 251.085C251.294 251.108 251.384 251.096 251.46 251.053C251.536 251.009 251.592 250.938 251.616 250.853H251.617Z" fill="#F2F2F2"/>
<path d="M248.265 245.395C247.784 246.129 247.122 246.725 246.344 247.128C245.566 247.53 244.698 247.725 243.823 247.694C241.575 247.587 239.7 246.014 238.013 244.521L233.022 240.103L236.325 239.945C238.7 239.831 241.137 239.724 243.401 240.459C245.666 241.193 247.751 242.96 248.164 245.306" fill="#E6E6E6"/>
<path d="M252.933 252.808C250.693 248.832 248.091 244.412 243.444 242.999C242.152 242.608 240.797 242.468 239.453 242.586C239.029 242.622 239.135 243.278 239.56 243.241C241.813 243.053 244.063 243.65 245.929 244.93C247.725 246.156 249.123 247.859 250.307 249.666C251.032 250.771 251.681 251.926 252.33 253.078C252.537 253.446 253.143 253.181 252.933 252.808Z" fill="#F2F2F2"/>
<path d="M131.921 137.938C135.06 137.938 137.605 135.386 137.605 132.239C137.605 129.092 135.06 126.541 131.921 126.541C128.781 126.541 126.236 129.092 126.236 132.239C126.236 135.386 128.781 137.938 131.921 137.938Z" fill="#D81B60"/>
<path d="M129.199 131.175C129.134 131.175 129.081 131.6 129.081 132.124C129.081 132.649 129.134 133.074 129.199 133.074H134.789C134.854 133.083 134.909 132.665 134.91 132.14C134.946 131.814 134.906 131.484 134.793 131.175H129.199V131.175Z" fill="#E6E6E6"/>
<path d="M131.921 168.341C135.06 168.341 137.605 165.79 137.605 162.643C137.605 159.496 135.06 156.944 131.921 156.944C128.781 156.944 126.236 159.496 126.236 162.643C126.236 165.79 128.781 168.341 131.921 168.341Z" fill="#D81B60"/>
<path d="M129.199 161.578C129.134 161.578 129.081 162.003 129.081 162.528C129.081 163.052 129.134 163.478 129.199 163.478H134.789C134.854 163.486 134.909 163.068 134.91 162.544C134.946 162.217 134.906 161.887 134.793 161.578L129.199 161.578Z" fill="#E6E6E6"/>
<path d="M131.921 198.732C135.06 198.732 137.605 196.18 137.605 193.033C137.605 189.886 135.06 187.335 131.921 187.335C128.781 187.335 126.236 189.886 126.236 193.033C126.236 196.18 128.781 198.732 131.921 198.732Z" fill="#D81B60"/>
<path d="M129.199 191.969C129.134 191.969 129.081 192.394 129.081 192.918C129.081 193.443 129.134 193.868 129.199 193.868H134.789C134.855 193.877 134.909 193.459 134.91 192.934C134.946 192.608 134.906 192.277 134.793 191.969L129.199 191.969Z" fill="#E6E6E6"/>
<path d="M151.023 61.885L149.012 63.9014L165.858 80.7888L167.87 78.7724L151.023 61.885Z" fill="white"/>
<path d="M167.87 63.9012L165.858 61.8848L149.012 78.7722L151.023 80.7886L167.87 63.9012Z" fill="white"/>
<path d="M32.0959 162.592C32.5887 162.417 33.0373 162.136 33.41 161.768C33.7827 161.401 34.0706 160.956 34.2532 160.465C34.4359 159.974 34.5089 159.449 34.4672 158.927C34.4255 158.404 34.27 157.897 34.0118 157.442L42.3915 147.866L35.8501 146.961L28.8955 156.193C28.1607 156.679 27.6292 157.418 27.4016 158.27C27.174 159.122 27.2662 160.029 27.6607 160.817C28.0552 161.606 28.7246 162.222 29.542 162.549C30.3595 162.876 31.2682 162.891 32.0959 162.592Z" fill="#9F616A"/>
<path d="M42.2018 247.456L36.3575 247.456L33.5771 224.859L42.2028 224.859L42.2018 247.456Z" fill="#9F616A"/>
<path d="M43.6923 253.135L24.8477 253.134V252.895C24.8478 250.945 25.6206 249.075 26.9961 247.697C28.3717 246.318 30.2372 245.543 32.1825 245.543H32.183L43.6927 245.543L43.6923 253.135Z" fill="#2F2E41"/>
<path d="M72.795 242.553L67.2136 244.29L57.8735 223.536L66.1113 220.973L72.795 242.553Z" fill="#9F616A"/>
<path d="M75.8987 247.534L57.9015 253.135L57.8308 252.907C57.2541 251.045 57.4389 249.029 58.3446 247.303C59.2504 245.577 60.8029 244.283 62.6606 243.705L62.6611 243.705L73.6532 240.284L75.8987 247.534Z" fill="#2F2E41"/>
<path d="M37.7264 143.274L29.0708 153.211L35.8471 153.823L37.7264 143.274Z" fill="#E6E6E6"/>
<path d="M34.3441 156.083C34.3441 156.083 31.3376 157.59 30.9617 164.371C30.5858 171.152 32.0893 188.859 32.0893 188.859C32.0893 188.859 30.5862 196.77 32.0893 203.928C33.5924 211.086 30.5862 237.078 32.4651 237.078C34.3441 237.078 44.1152 238.209 44.491 237.078C44.8669 235.948 45.2427 218.996 45.2427 218.996C45.2427 218.996 48.2493 210.331 45.2427 205.058C45.2427 205.058 55.7402 223.433 62.53 237.456C64.016 240.525 75.3076 237.079 73.4287 233.689C71.5497 230.298 67.04 214.853 67.04 214.853C67.04 214.853 63.6576 203.551 57.6448 198.654L60.6514 174.543C60.6514 174.543 67.0404 158.344 63.2828 156.084C59.5252 153.824 34.3441 156.083 34.3441 156.083Z" fill="#2F2E41"/>
<path d="M45.6182 94.6772C51.0146 94.6772 55.3893 90.292 55.3893 84.8826C55.3893 79.4731 51.0146 75.0879 45.6182 75.0879C40.2218 75.0879 35.8472 79.4731 35.8472 84.8826C35.8472 90.292 40.2218 94.6772 45.6182 94.6772Z" fill="#A0616A"/>
<path d="M56.5167 95.4307L44.3696 102.588C44.3696 102.588 39.7184 105.214 37.9809 109.746C36.129 114.576 37.2054 121.376 37.9809 122.931C39.484 125.945 37.3505 133.479 37.3505 133.479L35.4715 150.808C35.4715 150.808 28.707 157.212 33.9684 157.966C39.2298 158.72 48.625 157.589 54.2622 157.966C59.8995 158.343 66.2881 159.096 64.4091 155.328C62.5302 151.56 60.2754 148.924 62.5302 141.391C64.2946 135.495 64.2182 113.451 64.1016 104.141C64.0855 102.863 63.7434 101.61 63.1079 100.501C62.4723 99.3928 61.5644 98.4657 60.4706 97.8082L56.5167 95.4307Z" fill="#E5E5E5"/>
<path opacity="0.1" d="M51.0693 107.298L52.1965 130.278L41.2705 152.457L39.4175 151.751L50.692 131.031L51.0693 107.298Z" fill="black"/>
<path opacity="0.1" d="M63.4695 135.175V132.537L50.6934 153.634L63.4695 135.175Z" fill="black"/>
<path d="M38.6834 75.8084L37.0693 75.1611C37.0693 75.1611 40.4475 71.4337 45.1459 71.7577L43.8242 70.2991C43.8242 70.2991 47.0548 69.0026 49.992 72.4057C51.536 74.1948 53.3221 76.2978 54.4369 78.6665H56.1669L55.445 80.2602L57.9719 81.8539L55.3782 81.5687C55.6239 82.9446 55.5398 84.3593 55.1328 85.6961L55.204 86.9558C55.204 86.9558 52.196 82.2902 52.196 81.6429V83.2637C52.196 83.2637 50.5805 81.8051 50.5805 80.8327L49.6993 81.9673L49.2588 80.185L43.8253 81.9673L44.7057 80.5079L41.3276 80.9941L42.6493 79.2119C42.6493 79.2119 38.8313 81.3185 38.6844 83.1015C38.5376 84.8845 36.6287 87.153 36.6287 87.153L35.7476 85.5322C35.7476 85.5322 34.4262 78.2394 38.6834 75.8084Z" fill="#2F2E41"/>
<path d="M45.0053 163.658C45.4593 163.398 45.851 163.041 46.1527 162.614C46.4545 162.186 46.659 161.697 46.7518 161.181C46.8446 160.665 46.8235 160.135 46.69 159.629C46.5564 159.122 46.3137 158.651 45.9788 158.249L52.5298 147.334L45.9322 147.608L40.7227 157.93C40.0856 158.539 39.6934 159.361 39.6203 160.24C39.5473 161.119 39.7985 161.995 40.3264 162.701C40.8542 163.407 41.6221 163.894 42.4845 164.07C43.3468 164.247 44.2438 164.1 45.0053 163.658Z" fill="#9F616A"/>
<path d="M59.8995 100.329L62.7179 99.7637C62.7179 99.7637 71.1736 105.98 68.5429 118.411C65.9122 130.843 54.2622 149.679 54.2622 149.679C54.2622 149.679 51.6308 153.07 50.8798 153.823C50.1288 154.576 48.625 153.823 49.3767 154.953C50.1284 156.084 48.2491 156.837 48.2491 156.837C48.2491 156.837 39.9812 156.837 40.7329 153.823C41.4846 150.809 54.2622 129.334 54.2622 129.334L52.3833 109.368C52.3833 109.368 50.8794 99.5751 59.8995 100.329Z" fill="#E5E5E5"/>
</g>
<defs>
<clipPath id="clip0_1753_4993">
<rect width="264" height="254" fill="white"/>
</clipPath>
</defs>
</svg>
